<svg id="Layer_3" enable-background="new 0 0 64 64" height="512" viewBox="0 0 64 64" width="512" xmlns="http://www.w3.org/2000/svg"><path d="m32 24h10v4h-10z" fill="#a5a3a6"/><path d="m46 12h-5c-3.866 0-7 3.134-7 7v5h6v-4c0-1.105.895-2 2-2h4" fill="#dcdadd"/><path d="m46 10h6v10h-6z" fill="#a5a3a6"/><path d="m52 12h6v6h-6z" fill="#dcdadd"/><path d="m58 10h4v10h-4z" fill="#a5a3a6"/><path d="m52 6h-6c-1.105 0-2-.895-2-2 0-1.105.895-2 2-2h6c1.105 0 2 .895 2 2 0 1.105-.895 2-2 2z" fill="#6e6d6f"/><path d="m51 4c0-1.105-.895-2-2-2h-3c-1.105 0-2 .895-2 2s.895 2 2 2h3c1.105 0 2-.895 2-2z" fill="#a5a3a6"/><path d="m53 48c1.281 0 2.509-.509 3.414-1.414 1.016-1.016 1.586-2.393 1.586-3.829v-.354c0-.92-.234-1.825-.681-2.629l-4.319-7.774-4.252 7.654c-.491.883-.748 1.876-.748 2.885v.218c0 1.436.57 2.813 1.586 3.828.905.906 2.133 1.415 3.414 1.415z" fill="#94a7bf"/><path d="m51.5 34.7-2.752 4.954c-.491.883-.748 1.876-.748 2.885v.218c0 1.436.57 2.813 1.586 3.828.54.54 1.202.918 1.914 1.152.712-.234 1.374-.612 1.914-1.152 1.016-1.015 1.586-2.392 1.586-3.828v-.354c0-.92-.234-1.825-.681-2.629z" fill="#c5dfff"/><path d="m17 22c1.281 0 2.509-.509 3.414-1.414 1.016-1.016 1.586-2.393 1.586-3.829v-.354c0-.92-.234-1.825-.681-2.629l-4.319-7.774-4.252 7.654c-.491.883-.748 1.876-.748 2.885v.218c0 1.436.57 2.813 1.586 3.828.905.906 2.133 1.415 3.414 1.415z" fill="#94a7bf"/><path d="m15.5 8.7-2.752 4.954c-.491.883-.748 1.876-.748 2.885v.218c0 1.436.57 2.813 1.586 3.828.54.54 1.202.918 1.914 1.152.712-.234 1.374-.612 1.914-1.152 1.016-1.015 1.586-2.392 1.586-3.828v-.354c0-.92-.234-1.825-.681-2.629z" fill="#c5dfff"/><path d="m20 54h40c1.105 0 2 .895 2 2 0 1.105-.895 2-2 2h-7c-1.105 0-2 .895-2 2 0 1.105-.895 2-2 2h-18c-1.105 0-2-.895-2-2 0-1.105-.895-2-2-2h-7c-1.105 0-2-.895-2-2 0-1.105.895-2 2-2z" fill="#94a7bf"/><path d="m59 56c0-1.105-.895-2-2-2h-37c-1.105 0-2 .895-2 2s.895 2 2 2h4 3c1.105 0 2 .895 2 2s.895 2 2 2h15c1.105 0 2-.895 2-2s.895-2 2-2h3 4c1.105 0 2-.895 2-2z" fill="#c5dfff"/><path d="m2 28h8v18h-8z" fill="#bf9292"/><path d="m2 28h5v18h-5z" fill="#ffc2c2"/><path d="m27 42h11l2 2v2l-2 2h-19l-6-6h-3v-10h11l7 7v2l-2 2h-2l-4-4" fill="#fdd089"/><path d="m26 44h-2c-.265 0-.52-.105-.707-.293l-4-4 1.414-1.414 3.707 3.707h1.172l1.414-1.414v-1.172l-6.414-6.414h-10.586v-2h11c.265 0 .52.105.707.293l7 7c.188.187.293.441.293.707v2c0 .266-.105.52-.293.707l-2 2c-.187.188-.442.293-.707.293z"/><path d="m38 49h-19c-.265 0-.52-.105-.707-.293l-5.707-5.707h-2.586v-2h3c.265 0 .52.105.707.293l5.707 5.707h18.172l1.414-1.414v-1.172l-1.414-1.414h-10.586v-2h11c.265 0 .52.105.707.293l2 2c.188.187.293.441.293.707v2c0 .266-.105.52-.293.707l-2 2c-.187.188-.442.293-.707.293z"/><path d="m10 47h-8c-.552 0-1-.447-1-1v-18c0-.553.448-1 1-1h8c.552 0 1 .447 1 1v18c0 .553-.448 1-1 1zm-7-2h6v-16h-6z"/><path d="m41 24h-2v-4c0-1.654 1.346-3 3-3h4v2h-4c-.551 0-1 .448-1 1z"/><path d="m35 24h-2v-5c0-4.411 3.589-8 8-8h5v2h-5c-3.309 0-6 2.691-6 6z"/><path d="m62 21h-4c-.552 0-1-.447-1-1v-10c0-.553.448-1 1-1h4c.552 0 1 .447 1 1v10c0 .553-.448 1-1 1zm-3-2h2v-8h-2z"/><path d="m52 21h-6c-.552 0-1-.447-1-1v-10c0-.553.448-1 1-1h6c.552 0 1 .447 1 1v10c0 .553-.448 1-1 1zm-5-2h4v-8h-4z"/><path d="m48 6h2v4h-2z"/><path d="m52 7h-6c-1.654 0-3-1.346-3-3s1.346-3 3-3h6c1.654 0 3 1.346 3 3s-1.346 3-3 3zm-6-4c-.551 0-1 .448-1 1s.449 1 1 1h6c.551 0 1-.448 1-1s-.449-1-1-1z"/><path d="m42 29h-10c-.552 0-1-.447-1-1v-4c0-.553.448-1 1-1h10c.552 0 1 .447 1 1v4c0 .553-.448 1-1 1zm-9-2h8v-2h-8z"/><path d="m49 63h-18c-1.654 0-3-1.346-3-3 0-.552-.449-1-1-1h-7c-1.654 0-3-1.346-3-3s1.346-3 3-3h40c1.654 0 3 1.346 3 3s-1.346 3-3 3h-7c-.551 0-1 .448-1 1 0 1.654-1.346 3-3 3zm-29-8c-.551 0-1 .448-1 1s.449 1 1 1h7c1.654 0 3 1.346 3 3 0 .552.449 1 1 1h18c.551 0 1-.448 1-1 0-1.654 1.346-3 3-3h7c.551 0 1-.448 1-1s-.449-1-1-1z"/><path d="m53 49c-1.557 0-3.021-.606-4.121-1.707-1.212-1.212-1.879-2.822-1.879-4.535v-.219c0-1.176.302-2.342.874-3.37l4.252-7.654c.353-.635 1.396-.635 1.748 0l4.319 7.773c.528.95.807 2.028.807 3.115v.354c0 1.713-.667 3.323-1.879 4.535-1.1 1.102-2.564 1.708-4.121 1.708zm0-14.941-3.378 6.081c-.407.732-.622 1.562-.622 2.399v.219c0 1.179.459 2.287 1.293 3.121 1.446 1.445 3.968 1.445 5.414 0 .834-.834 1.293-1.942 1.293-3.121v-.354c0-.748-.192-1.49-.556-2.145z"/><path d="m17 23c-1.557 0-3.021-.606-4.121-1.707-1.212-1.212-1.879-2.822-1.879-4.535v-.219c0-1.176.302-2.342.874-3.37l4.252-7.654c.353-.635 1.396-.635 1.748 0l4.319 7.773c.528.95.807 2.028.807 3.115v.354c0 1.713-.667 3.323-1.879 4.535-1.1 1.102-2.564 1.708-4.121 1.708zm0-14.941-3.378 6.081c-.407.732-.622 1.562-.622 2.399v.219c0 1.179.459 2.287 1.293 3.121 1.446 1.445 3.968 1.445 5.414 0 .834-.834 1.293-1.942 1.293-3.121v-.354c0-.748-.192-1.49-.556-2.145z"/><path d="m32 31h2v2h-2z"/><path d="m32 35h2v2h-2z"/><path d="m36 31h2v2h-2z"/><path d="m36 35h2v2h-2z"/><path d="m40 31h2v2h-2z"/><path d="m40 35h2v2h-2z"/><path d="m52 17h6v2h-6z"/><path d="m52 11h6v2h-6z"/></svg>