<?xml version="1.0" standalone="no"?>
<!DOCTYPE svg PUBLIC "-//W3C//DTD SVG 20010904//EN"
 "http://www.w3.org/TR/2001/REC-SVG-20010904/DTD/svg10.dtd">
<svg version="1.0" xmlns="http://www.w3.org/2000/svg"
 width="1280.000000pt" height="640.000000pt" viewBox="0 0 1280.000000 640.000000"
 preserveAspectRatio="xMidYMid meet">
<g transform="translate(0.000000,640.000000) scale(0.100000,-0.100000)"
fill="#000000" stroke="none">
<path d="M8376 5081 c-8 -12 -16 -101 -21 -226 -2 -60 -6 -148 -9 -195 -4 -77
-14 -296 -19 -425 -2 -39 -6 -51 -20 -53 -17 -3 -18 4 -16 85 2 88 1 305 -1
333 -1 8 -3 80 -4 160 -1 80 -6 153 -10 162 -4 9 -5 22 -1 28 8 13 -32 60 -51
60 -16 0 -25 -69 -30 -220 -2 -69 -6 -165 -9 -215 -3 -49 -7 -119 -8 -155 -2
-53 -5 -65 -20 -68 -15 -3 -18 3 -17 45 2 90 -7 428 -12 443 -3 8 -9 28 -14
44 -9 29 -38 55 -49 44 -12 -12 -18 -56 -21 -148 -4 -97 -10 -241 -20 -435 -3
-60 -5 -140 -6 -177 0 -47 -4 -68 -14 -72 -19 -7 -21 0 -23 89 -1 44 -3 114
-6 155 -10 173 -17 337 -16 373 1 22 -3 37 -10 37 -7 0 -9 10 -6 25 5 28 -22
55 -55 55 -14 0 -18 -8 -18 -32 1 -44 -7 -183 -10 -183 -2 0 -6 -51 -14 -205
-3 -52 -8 -131 -12 -175 -3 -44 -6 -109 -7 -145 -2 -50 -5 -65 -17 -65 -12 0
-15 15 -17 65 -1 36 -4 94 -7 130 -8 94 -17 290 -17 328 1 17 -4 32 -10 32 -7
0 -9 10 -5 24 5 19 0 29 -21 46 -14 11 -31 19 -37 17 -5 -2 -12 -32 -14 -68
-7 -125 -15 -219 -32 -387 -6 -52 -8 -97 -5 -102 3 -4 0 -32 -5 -61 -6 -29
-13 -94 -16 -143 -4 -50 -8 -109 -9 -131 -2 -22 -6 -85 -9 -140 -3 -55 -8
-111 -11 -125 -2 -14 -7 -74 -11 -135 -3 -60 -10 -117 -15 -126 -8 -16 -27
-18 -164 -18 -86 0 -160 -3 -166 -7 -5 -3 -16 0 -24 6 -8 6 -22 9 -32 6 -10
-3 -112 -7 -226 -8 -222 -2 -226 -1 -227 47 0 11 -7 29 -15 39 -8 11 -15 28
-15 38 0 10 -4 26 -9 36 -21 42 -41 94 -41 107 0 9 -9 15 -23 15 -13 0 -34 13
-50 32 -29 32 -48 29 -53 -9 -6 -37 -22 -99 -33 -127 -7 -16 -9 -36 -6 -43 3
-8 0 -24 -7 -36 -6 -12 -13 -35 -14 -52 -1 -16 -7 -48 -13 -70 -12 -43 -26
-108 -42 -195 -17 -97 -43 -139 -53 -87 -8 35 -18 165 -21 252 -1 44 -5 94 -8
110 -4 17 -10 80 -13 140 -4 61 -8 130 -10 155 -6 76 -14 213 -14 250 -1 19
-8 64 -16 99 -23 100 -49 118 -76 54 -15 -35 -20 -56 -35 -141 -3 -18 -9 -35
-14 -38 -5 -3 -9 -20 -9 -38 0 -17 -5 -37 -10 -42 -6 -6 -12 -28 -15 -50 -2
-21 -8 -52 -14 -69 -24 -74 -31 -103 -31 -121 0 -37 -21 -92 -37 -98 -25 -10
-25 -11 -37 109 -3 28 -11 62 -16 76 -6 14 -13 55 -15 90 -6 89 -16 152 -26
165 -5 6 -8 24 -8 40 0 35 -25 193 -33 214 -4 8 -9 41 -13 73 -4 31 -11 57
-16 57 -5 0 -9 6 -9 14 0 22 -41 67 -59 64 -9 -2 -17 -14 -18 -28 -1 -14 -4
-50 -6 -80 -3 -30 -8 -120 -12 -200 -3 -80 -9 -152 -11 -160 -3 -8 -7 -49 -10
-90 -2 -41 -6 -109 -9 -150 -3 -41 -7 -120 -10 -175 -3 -55 -8 -107 -10 -115
-3 -8 -7 -67 -10 -130 -3 -63 -8 -144 -11 -180 -3 -36 -6 -76 -7 -89 -1 -13
-7 -26 -14 -28 -8 -3 -11 7 -9 33 2 21 0 45 -5 54 -6 12 -33 234 -39 320 -1
24 -9 101 -15 150 -3 25 -7 83 -10 129 -3 70 -9 93 -36 147 -32 61 -51 80 -70
68 -5 -3 -9 -14 -9 -24 0 -10 -4 -22 -10 -25 -5 -3 -10 -19 -10 -34 0 -16 -7
-42 -15 -57 -8 -16 -15 -36 -15 -45 0 -9 -7 -30 -16 -47 -8 -18 -13 -36 -10
-41 4 -5 0 -25 -8 -43 -8 -18 -19 -53 -26 -78 -7 -25 -16 -55 -21 -68 -5 -13
-9 -31 -9 -42 0 -10 -11 -31 -24 -47 l-24 -27 -233 -3 c-129 -1 -377 -4 -552
-6 -203 -3 -322 -8 -329 -15 -14 -14 -1 -50 21 -57 10 -3 30 -1 44 6 18 8 30
8 46 0 15 -9 25 -8 41 1 16 10 24 10 40 0 17 -10 24 -10 43 2 19 13 25 13 40
1 15 -10 25 -11 43 -3 17 8 31 8 47 1 17 -8 28 -7 41 3 16 11 23 11 46 -1 23
-12 29 -12 42 1 13 13 19 14 36 3 15 -9 27 -10 43 -3 16 8 32 7 53 0 22 -8 30
-8 33 2 6 15 35 16 51 0 9 -9 17 -9 36 2 21 10 28 11 41 0 12 -10 21 -10 45 0
24 10 33 10 45 0 13 -11 20 -10 41 1 20 10 29 11 45 1 15 -10 23 -10 38 0 15
9 25 9 47 0 22 -11 29 -10 45 4 18 16 20 16 40 -2 21 -19 21 -18 45 9 13 16
24 37 24 47 0 10 5 22 11 25 5 4 7 19 4 34 -4 20 0 32 14 45 17 15 18 22 9 39
-9 17 -7 24 11 39 16 12 21 23 16 38 -4 14 -1 28 10 40 12 13 15 28 11 47 -6
24 -2 32 18 42 40 22 60 8 52 -39 -4 -24 -2 -41 5 -46 7 -4 8 -20 4 -42 -4
-24 -2 -37 7 -43 10 -6 10 -15 1 -38 -9 -24 -8 -33 3 -42 17 -14 18 -41 2 -57
-9 -9 -7 -16 7 -32 16 -18 17 -24 6 -42 -10 -17 -10 -23 5 -39 14 -16 15 -23
5 -45 -10 -22 -9 -30 4 -44 13 -15 14 -22 3 -45 -11 -24 -10 -29 7 -41 16 -12
17 -17 6 -38 -11 -20 -11 -28 2 -46 12 -18 13 -27 4 -41 -8 -13 -8 -24 3 -44
10 -19 11 -31 3 -43 -7 -13 -6 -23 5 -40 11 -18 12 -28 4 -47 -8 -18 -8 -26 4
-35 17 -15 18 -42 2 -58 -9 -9 -7 -16 7 -32 16 -18 17 -24 7 -41 -7 -11 -9
-25 -5 -32 4 -6 9 -34 10 -62 2 -27 5 -65 6 -82 2 -35 41 -73 58 -56 10 10 15
160 6 170 -4 3 -2 14 4 24 6 13 6 25 -1 39 -8 15 -7 25 4 42 13 20 13 26 0 42
-12 17 -12 22 3 38 13 14 14 23 6 41 -8 17 -7 30 4 51 11 22 12 30 2 42 -9 12
-9 20 2 40 11 21 11 29 0 46 -10 17 -10 23 4 38 13 14 14 22 4 44 -11 22 -10
29 3 43 13 12 14 21 6 39 -9 18 -8 30 1 48 10 17 10 29 2 43 -7 15 -6 25 5 41
12 17 12 25 2 41 -10 16 -9 25 1 44 10 20 11 29 1 47 -11 20 -10 25 5 37 16
11 17 17 6 39 -9 22 -9 31 3 49 13 19 13 25 1 41 -11 16 -11 23 3 46 13 22 13
29 3 42 -11 13 -10 20 3 42 14 20 15 28 5 40 -9 11 -9 21 1 44 10 24 10 33 0
45 -10 13 -9 19 5 35 16 18 17 23 5 45 -12 22 -11 28 2 41 13 13 13 21 5 45
-9 24 -8 32 5 45 15 15 15 19 1 41 -15 22 -15 26 0 40 8 9 23 13 31 10 19 -8
21 -38 4 -56 -11 -10 -9 -15 6 -26 14 -11 17 -21 12 -46 -4 -23 -1 -38 10 -50
13 -14 13 -21 4 -40 -10 -19 -10 -24 4 -34 18 -14 21 -41 5 -50 -7 -5 -5 -15
6 -32 11 -16 14 -34 10 -50 -4 -17 0 -32 10 -43 13 -15 14 -23 5 -40 -9 -18
-8 -25 6 -41 14 -15 15 -24 6 -43 -8 -19 -7 -27 10 -43 17 -18 18 -23 7 -41
-11 -18 -10 -24 5 -41 14 -16 15 -23 6 -41 -9 -17 -8 -25 4 -39 19 -20 21 -42
5 -58 -7 -7 -3 -17 17 -32 36 -28 49 -22 50 22 1 21 9 46 18 56 15 16 16 23 5
42 -10 20 -9 25 9 37 16 11 19 20 15 48 -4 26 -2 35 11 40 13 5 15 14 11 36
-5 21 -2 35 10 48 11 12 14 26 10 40 -4 14 -1 28 10 40 11 12 14 26 10 40 -4
14 -1 28 10 40 12 13 15 27 10 49 -6 27 -3 31 19 37 37 9 49 -3 41 -43 -4 -21
-2 -40 6 -49 9 -11 9 -20 0 -41 -10 -21 -9 -29 4 -43 13 -15 14 -22 3 -45 -11
-24 -10 -29 7 -41 17 -13 18 -17 6 -35 -10 -17 -10 -27 -1 -49 9 -21 9 -33 0
-50 -10 -18 -8 -24 6 -35 16 -11 17 -16 5 -38 -11 -20 -11 -28 0 -46 11 -17
11 -25 1 -41 -10 -17 -10 -24 4 -44 12 -20 13 -29 4 -46 -9 -17 -8 -25 5 -40
14 -15 14 -22 5 -40 -9 -18 -9 -28 1 -47 11 -20 11 -28 0 -45 -10 -17 -10 -23
5 -39 15 -17 15 -23 4 -44 -10 -19 -11 -27 -1 -39 8 -10 10 -27 6 -46 -4 -19
-2 -36 6 -46 10 -12 9 -20 -2 -40 -12 -23 -11 -27 6 -40 10 -8 30 -14 43 -14
21 0 23 3 17 31 -5 24 -2 36 15 54 17 19 20 27 11 43 -8 16 -7 25 8 43 15 18
17 28 9 43 -8 14 -5 23 10 39 17 17 19 24 9 44 -9 21 -8 27 7 39 14 9 17 20
12 40 -5 18 -2 32 9 44 10 12 14 26 10 39 -3 12 1 31 11 47 14 20 15 30 6 44
-9 14 -7 21 8 35 14 12 18 25 14 41 -4 14 0 34 9 48 9 13 13 33 10 45 -3 13 1
29 11 40 15 16 15 22 4 40 -12 20 -10 24 12 41 45 35 65 26 60 -28 -1 -12 6
-25 14 -28 11 -4 16 -19 16 -44 0 -24 5 -40 15 -44 9 -3 15 -18 15 -40 0 -31
3 -34 37 -41 20 -4 46 -13 57 -21 17 -12 22 -12 37 2 14 12 21 13 43 2 22 -9
32 -9 47 0 15 10 23 10 38 0 16 -10 25 -9 45 1 21 12 28 12 41 1 12 -10 21
-10 40 -2 19 9 31 9 50 0 19 -8 28 -8 40 2 13 11 20 11 39 0 18 -9 29 -9 45
-1 16 9 26 9 42 0 16 -8 27 -8 45 2 19 10 27 10 36 1 15 -15 48 -16 48 -2 0
14 33 13 48 -2 9 -9 17 -9 35 1 20 11 28 10 46 -1 20 -12 25 -9 65 37 38 43
42 53 33 72 -7 17 -7 30 2 47 9 17 10 29 3 42 -7 13 -6 24 5 40 11 18 12 27 3
44 -9 17 -8 25 5 40 13 14 14 22 4 43 -9 20 -8 30 5 48 14 21 14 24 -1 41 -15
17 -15 19 2 38 15 16 16 25 7 44 -8 18 -7 29 5 46 11 16 12 25 4 33 -15 15
-14 42 3 57 12 9 12 17 4 35 -8 18 -8 28 2 40 29 35 71 2 51 -41 -9 -19 -9
-30 0 -40 6 -8 8 -26 4 -44 -4 -19 -2 -36 6 -46 9 -11 9 -20 0 -41 -9 -21 -9
-29 3 -42 12 -14 12 -20 1 -41 -12 -21 -11 -27 2 -43 14 -14 14 -21 4 -41 -11
-19 -10 -27 0 -45 11 -17 12 -25 1 -42 -10 -16 -10 -24 -1 -35 7 -8 9 -27 5
-49 -4 -19 -2 -44 4 -55 7 -14 8 -26 0 -39 -8 -16 -5 -23 17 -41 32 -25 49
-21 46 11 0 13 3 42 7 63 6 25 5 47 -2 59 -7 14 -7 26 2 42 9 16 9 28 1 42 -7
15 -6 25 5 41 12 18 12 25 2 42 -10 16 -10 24 -1 40 7 11 10 32 7 50 -4 18 -1
36 6 45 11 13 11 20 0 40 -11 21 -11 27 3 43 15 16 15 21 3 38 -12 16 -12 22
2 46 13 22 13 29 3 42 -11 13 -10 20 4 42 16 24 16 27 -2 46 -17 19 -17 20 2
34 24 18 39 18 55 -1 11 -13 11 -20 0 -40 -11 -21 -11 -27 3 -43 15 -16 15
-21 3 -38 -13 -16 -13 -22 0 -42 11 -17 12 -27 3 -43 -8 -16 -8 -27 2 -46 10
-19 11 -28 1 -44 -10 -15 -9 -24 2 -42 13 -19 13 -25 0 -41 -12 -17 -12 -22 3
-38 14 -16 15 -22 4 -40 -10 -16 -10 -26 -1 -49 10 -22 10 -32 1 -43 -9 -11
-10 -20 -1 -36 6 -12 8 -34 5 -51 -4 -18 -2 -36 6 -45 9 -11 9 -20 1 -40 -9
-19 -9 -29 0 -44 9 -15 10 -25 2 -37 -7 -12 -8 -45 -3 -97 4 -44 5 -84 2 -89
-6 -11 36 -57 53 -57 19 0 21 17 20 153 -1 70 1 133 5 139 4 7 3 20 -3 31 -7
13 -6 27 2 47 9 22 9 32 -2 49 -11 18 -10 23 4 37 15 16 15 19 0 42 -15 24
-15 26 5 39 20 14 21 15 5 43 -16 28 -16 30 1 47 16 16 18 16 34 0 14 -14 15
-22 6 -47 -9 -23 -8 -32 3 -41 18 -15 18 -33 -1 -49 -14 -11 -14 -15 2 -32 14
-16 15 -22 4 -40 -10 -16 -10 -26 -1 -48 9 -21 9 -34 1 -49 -9 -15 -8 -26 1
-41 10 -16 10 -24 0 -41 -10 -15 -11 -24 -3 -32 14 -14 14 -50 0 -64 -8 -8 -7
-17 3 -32 10 -16 10 -25 1 -39 -7 -12 -8 -24 -1 -36 6 -11 6 -27 0 -45 -6 -16
-7 -33 -3 -39 3 -5 5 -46 5 -90 -2 -73 1 -83 22 -103 41 -38 49 -16 49 136 0
73 3 137 7 140 4 4 3 18 -3 32 -6 16 -5 31 1 44 8 13 7 25 -1 40 -8 16 -8 27
1 44 9 17 9 28 0 45 -9 18 -9 25 5 40 13 14 14 22 4 44 -10 22 -9 29 5 45 15
16 15 19 1 31 -21 18 -19 48 5 55 39 12 65 -30 35 -55 -14 -12 -14 -15 1 -31
14 -16 15 -23 4 -48 -10 -26 -10 -33 4 -47 16 -15 16 -18 0 -35 -15 -17 -16
-22 -4 -45 11 -20 12 -29 2 -45 -10 -15 -9 -24 3 -42 13 -20 13 -25 0 -45 -13
-17 -13 -25 -3 -41 9 -14 9 -26 1 -43 -7 -17 -8 -30 -1 -42 7 -12 7 -26 0 -40
-5 -13 -6 -30 0 -45 4 -13 5 -33 2 -45 -6 -20 -7 -67 -1 -166 2 -36 7 -47 29
-59 15 -9 30 -13 33 -9 3 3 7 84 8 179 2 96 6 180 11 187 5 8 3 24 -4 38 -10
18 -10 26 -1 38 8 9 10 28 5 50 -4 23 -2 42 5 50 9 11 9 19 0 35 -11 16 -11
24 0 44 11 20 11 28 0 45 -12 19 -11 24 3 38 13 13 14 21 5 41 -8 18 -8 29 1
43 7 12 9 27 3 42 -6 15 -4 32 5 49 12 23 11 29 -1 39 -14 11 -14 16 1 38 13
20 14 28 4 48 -10 19 -10 26 -1 38 8 9 10 27 6 45 -3 17 -1 39 5 51 9 17 8 25
-4 39 -15 16 -15 19 2 34 23 21 36 21 52 2 10 -13 11 -20 1 -39 -10 -19 -10
-27 0 -44 11 -17 11 -25 -1 -46 -12 -24 -11 -28 6 -40 18 -14 18 -15 1 -34
-15 -16 -16 -24 -6 -46 9 -19 9 -32 1 -50 -8 -18 -7 -27 6 -39 14 -14 14 -20
2 -42 -10 -19 -11 -28 -2 -37 15 -15 16 -48 2 -48 -14 0 -13 -33 2 -48 9 -9 9
-17 -1 -36 -11 -20 -11 -28 3 -47 14 -20 14 -25 0 -40 -12 -13 -13 -21 -3 -43
9 -19 9 -32 1 -50 -8 -18 -7 -27 5 -39 13 -13 13 -17 -2 -40 -10 -16 -12 -27
-6 -32 6 -3 10 -27 10 -53 0 -26 0 -54 0 -62 1 -8 1 -109 0 -225 0 -115 0
-222 0 -238 0 -19 8 -31 25 -38 32 -15 60 -5 51 19 -4 9 -7 22 -7 27 5 54 3
345 -2 353 -3 6 -1 22 5 35 8 18 8 30 0 45 -8 15 -8 27 0 45 8 17 8 31 1 43
-7 12 -7 25 0 40 7 14 7 28 0 40 -7 14 -6 26 3 44 12 21 11 28 -2 42 -14 16
-14 20 2 44 12 19 14 29 6 37 -16 16 -14 42 4 57 14 12 14 15 0 30 -20 22 -19
33 4 54 19 17 20 17 37 -9 16 -24 16 -28 1 -42 -14 -14 -14 -18 -1 -39 12 -18
13 -27 4 -45 -9 -16 -9 -27 0 -44 9 -17 9 -28 0 -45 -9 -18 -9 -25 6 -41 16
-18 16 -20 -1 -39 -17 -18 -17 -21 -1 -46 16 -23 16 -27 2 -43 -14 -15 -14
-19 0 -39 12 -17 12 -26 3 -43 -8 -16 -8 -27 1 -45 11 -19 11 -26 0 -39 -10
-12 -10 -21 0 -45 10 -24 10 -33 0 -45 -11 -13 -10 -20 1 -41 10 -20 10 -29 1
-44 -9 -14 -9 -26 -1 -43 8 -17 8 -30 1 -44 -6 -10 -7 -25 -2 -32 4 -8 5 -57
3 -110 -3 -53 -5 -103 -4 -111 1 -8 3 -38 4 -67 4 -58 19 -83 51 -83 22 0 22
1 21 181 0 99 3 185 6 191 4 6 3 21 -3 33 -7 16 -7 29 1 44 8 15 9 27 1 40 -7
14 -7 27 1 45 9 20 9 29 -1 41 -10 12 -9 20 5 41 16 24 16 27 -1 45 -16 18
-16 20 0 38 15 16 15 23 6 41 -9 17 -9 28 0 45 9 17 9 28 0 44 -9 18 -8 27 4
45 13 21 13 26 -1 45 -14 20 -13 24 2 41 14 15 14 21 4 38 -11 17 -11 25 0 45
10 19 10 28 0 44 -10 17 -9 24 4 44 15 21 15 24 0 41 -15 17 -15 19 1 37 14
15 15 23 5 45 -10 21 -10 31 0 50 11 19 10 27 0 44 -12 19 -11 24 3 38 13 13
14 21 5 41 -8 18 -8 29 1 43 9 15 9 25 0 45 -9 21 -9 29 5 42 15 15 18 15 37
-2 19 -17 19 -20 4 -42 -14 -23 -14 -26 0 -42 20 -22 20 -35 1 -51 -12 -10
-12 -15 1 -35 12 -19 13 -28 4 -46 -9 -16 -9 -27 0 -44 9 -17 9 -28 1 -44 -9
-15 -8 -25 1 -40 9 -15 9 -25 0 -46 -11 -23 -10 -29 5 -40 16 -12 16 -14 1
-37 -15 -23 -15 -28 -2 -46 12 -17 12 -25 2 -41 -10 -16 -9 -25 1 -45 12 -21
12 -28 1 -41 -11 -13 -11 -20 1 -41 10 -20 10 -29 1 -44 -9 -15 -9 -25 0 -45
9 -21 9 -31 0 -46 -10 -16 -10 -24 2 -41 13 -18 13 -24 1 -42 -12 -18 -12 -24
0 -39 10 -15 11 -25 3 -43 -9 -18 -8 -30 2 -49 11 -20 11 -27 0 -40 -11 -13
-11 -20 0 -39 9 -18 9 -29 1 -45 -9 -15 -8 -25 1 -41 10 -16 10 -24 0 -40 -9
-15 -10 -26 -1 -41 7 -14 7 -29 0 -49 -7 -20 -7 -32 0 -36 6 -3 8 -17 4 -33
-4 -14 -7 -30 -6 -36 0 -5 2 -67 3 -136 3 -108 6 -130 22 -148 11 -12 25 -21
33 -21 15 0 15 -1 18 215 1 88 4 165 5 170 2 6 0 18 -5 28 -4 11 -2 28 5 42
11 20 11 27 0 40 -11 13 -11 20 0 40 10 19 11 31 2 49 -8 18 -7 28 5 45 14 20
13 24 -3 42 -16 18 -16 20 0 38 15 16 15 23 6 41 -9 17 -9 28 0 45 9 17 9 28
0 45 -9 18 -9 25 5 40 14 15 14 21 4 38 -10 16 -10 26 -1 47 9 20 9 30 -1 45
-9 15 -9 25 -1 38 17 26 39 26 51 -1 9 -19 8 -28 -4 -40 -13 -13 -13 -17 2
-40 15 -24 15 -28 1 -49 -14 -20 -14 -24 0 -39 12 -13 13 -21 3 -42 -9 -21 -9
-30 1 -42 11 -13 11 -20 -1 -41 -11 -21 -11 -29 0 -46 10 -17 11 -25 0 -45
-10 -18 -10 -26 -1 -35 15 -15 15 -45 0 -50 -9 -3 -9 -12 1 -36 11 -26 11 -35
1 -47 -11 -13 -11 -20 0 -39 9 -18 9 -28 0 -46 -9 -18 -9 -27 0 -45 9 -17 9
-28 1 -44 -8 -14 -9 -27 -2 -40 6 -10 8 -21 4 -24 -3 -4 -7 -119 -9 -257 -4
-238 -3 -250 14 -250 24 0 51 29 52 55 1 35 9 188 13 267 2 47 0 81 -7 88 -7
7 -7 16 2 31 8 12 11 33 7 49 -4 16 -2 37 3 46 7 12 6 24 -1 35 -8 13 -8 25 2
45 8 19 9 30 1 38 -15 15 -12 42 5 56 14 12 14 15 0 30 -19 21 -19 29 1 51 14
16 14 19 0 42 -15 22 -15 25 5 43 21 19 21 19 40 -5 18 -22 18 -25 3 -42 -16
-17 -15 -20 0 -45 16 -24 16 -27 1 -44 -14 -15 -14 -21 -4 -38 10 -16 10 -26
1 -48 -11 -22 -10 -29 2 -43 14 -15 14 -19 0 -39 -12 -17 -12 -25 -2 -41 9
-15 9 -25 0 -46 -10 -21 -10 -31 -1 -41 9 -11 9 -21 0 -40 -8 -18 -8 -31 -1
-45 6 -11 8 -25 4 -31 -4 -6 -8 -95 -10 -198 l-3 -187 25 -24 c18 -16 27 -20
35 -12 11 11 19 171 20 370 1 46 5 85 10 88 4 3 3 17 -3 31 -9 20 -9 30 0 45
9 15 10 25 1 40 -8 16 -8 27 2 46 11 20 11 28 0 45 -10 17 -10 23 4 38 14 15
14 22 5 40 -9 18 -9 28 1 47 11 20 11 28 0 45 -10 17 -10 23 4 38 14 15 14 22
5 40 -9 18 -9 28 1 47 11 20 11 28 0 45 -10 17 -10 23 4 38 13 15 14 22 5 40
-9 17 -9 29 0 50 9 22 9 32 -1 49 -12 18 -11 22 5 34 16 12 17 17 6 36 -9 18
-9 29 0 52 10 23 10 32 0 44 -10 12 -9 19 3 38 11 17 12 28 5 41 -7 12 -6 27
2 47 10 23 10 32 0 44 -10 12 -9 20 4 40 13 20 14 28 4 44 -10 16 -9 25 1 44
11 20 11 28 -1 46 -11 19 -11 24 4 35 15 11 16 17 6 44 -15 39 1 64 30 46 23
-15 26 -38 8 -57 -14 -13 -14 -16 -1 -27 18 -15 19 -34 3 -59 -9 -15 -8 -22 5
-36 15 -15 15 -18 1 -40 -12 -19 -13 -27 -3 -43 10 -17 10 -26 0 -48 -9 -20
-9 -30 -2 -32 15 -5 14 -45 -1 -60 -9 -9 -7 -16 6 -31 16 -17 16 -22 2 -43
-13 -20 -13 -26 -1 -42 12 -16 12 -23 0 -46 -12 -23 -12 -29 2 -42 13 -14 13
-18 -1 -40 -15 -23 -15 -27 -1 -38 8 -7 15 -18 15 -25 0 -7 -7 -18 -15 -25
-14 -11 -14 -15 1 -38 13 -20 14 -28 4 -48 -11 -19 -11 -26 0 -39 11 -13 11
-20 0 -40 -11 -20 -11 -29 -1 -49 11 -19 10 -27 0 -44 -11 -17 -11 -24 -1 -34
14 -14 16 -48 2 -48 -14 0 -13 -33 2 -48 9 -9 9 -17 -1 -35 -11 -20 -10 -28 0
-45 11 -17 11 -25 0 -46 -12 -21 -12 -28 -1 -41 10 -12 10 -21 2 -41 -9 -18
-9 -29 0 -44 9 -15 9 -24 -1 -44 -12 -21 -12 -28 -1 -41 11 -13 11 -20 0 -39
-9 -18 -9 -28 0 -46 6 -12 8 -29 5 -38 -10 -23 -13 -310 -4 -324 4 -7 4 -19
-1 -29 -11 -20 31 -65 53 -56 14 5 17 55 21 322 1 66 5 125 9 132 4 6 2 23 -4
37 -9 20 -9 29 1 41 11 13 11 20 0 41 -12 21 -11 27 2 41 13 12 14 21 6 39 -9
18 -8 30 2 49 11 20 11 27 0 40 -10 12 -10 21 0 44 9 23 9 33 -1 50 -12 18
-11 22 4 34 16 11 17 17 6 40 -10 22 -10 32 0 51 11 19 10 27 0 44 -12 19 -11
24 3 38 13 13 14 21 6 40 -9 18 -8 30 1 48 10 19 10 27 0 44 -11 18 -11 24 4
40 15 17 15 20 1 41 -15 20 -15 24 2 42 15 17 15 23 4 44 -10 19 -11 27 -1 39
8 9 10 27 6 45 -3 17 -1 39 5 51 9 16 8 25 -1 36 -9 11 -9 21 1 44 10 24 10
33 0 45 -10 12 -9 20 5 41 12 19 14 29 6 37 -16 16 -14 42 4 57 14 12 14 15
-1 31 -18 21 -13 46 12 56 11 4 22 -1 30 -12 12 -16 12 -22 -2 -43 -14 -22
-14 -25 2 -43 15 -16 15 -23 5 -43 -10 -18 -10 -29 -2 -45 9 -15 8 -25 -1 -40
-10 -16 -9 -25 1 -45 12 -21 12 -28 1 -41 -10 -13 -11 -20 -1 -39 10 -19 10
-27 0 -44 -11 -17 -11 -25 0 -46 12 -21 12 -28 1 -41 -10 -12 -10 -21 -1 -41
8 -18 8 -31 0 -46 -8 -15 -8 -26 1 -44 11 -19 11 -26 0 -39 -11 -13 -11 -20 0
-40 11 -21 11 -29 0 -50 -11 -20 -11 -27 0 -40 11 -13 11 -20 0 -39 -9 -18 -9
-28 0 -46 9 -18 9 -27 0 -45 -9 -17 -9 -28 -1 -43 8 -15 8 -28 0 -46 -9 -20
-9 -29 1 -41 11 -13 11 -20 0 -39 -9 -18 -9 -29 -1 -45 9 -15 9 -27 1 -41 -8
-14 -8 -26 0 -40 7 -12 7 -27 2 -37 -5 -10 -8 -72 -7 -138 0 -66 -3 -131 -7
-144 -5 -14 -4 -28 2 -36 6 -7 8 -24 5 -37 -8 -29 38 -79 56 -61 9 9 23 224
20 296 -4 74 4 232 12 244 4 7 3 22 -4 34 -8 16 -8 27 1 44 9 16 9 28 1 42 -7
15 -6 25 6 42 13 19 13 27 3 46 -9 18 -9 27 1 44 11 17 12 25 1 42 -11 18 -11
24 3 39 14 15 14 22 5 40 -9 17 -9 28 0 45 9 17 9 28 1 44 -9 16 -8 26 3 43
13 20 13 26 0 42 -12 17 -12 22 3 38 13 15 14 23 4 44 -10 22 -9 30 4 44 14
15 14 21 4 38 -11 17 -10 26 1 47 11 21 12 30 2 46 -10 15 -9 24 2 42 13 19
13 25 0 41 -12 17 -12 22 3 38 13 15 14 22 4 45 -10 21 -9 29 3 41 11 11 12
21 4 42 -6 20 -6 35 2 49 8 15 8 27 0 42 -9 16 -8 26 4 43 13 20 13 26 1 42
-12 16 -12 22 1 41 11 18 12 27 2 48 -9 21 -9 29 4 42 13 12 14 21 6 39 -9 18
-8 30 1 48 11 19 10 27 -1 45 -11 20 -11 24 7 37 36 27 68 -8 46 -50 -12 -21
-12 -28 -1 -41 10 -13 11 -20 1 -39 -10 -19 -10 -27 0 -44 11 -17 11 -25 0
-45 -11 -20 -11 -28 0 -46 11 -17 11 -25 1 -41 -10 -17 -10 -24 2 -42 14 -20
14 -24 0 -39 -12 -14 -13 -21 -2 -43 9 -22 9 -32 0 -47 -10 -15 -10 -23 0 -38
9 -15 9 -25 0 -47 -11 -22 -10 -29 4 -46 16 -17 16 -20 1 -35 -14 -14 -14 -20
-2 -42 11 -22 11 -29 0 -45 -12 -16 -12 -22 2 -42 14 -22 14 -26 0 -42 -15
-16 -15 -20 -2 -39 12 -17 13 -27 4 -47 -9 -20 -9 -29 1 -41 11 -13 11 -20 0
-40 -11 -21 -11 -29 0 -50 11 -20 11 -27 0 -40 -10 -13 -11 -20 -1 -39 10 -19
10 -27 0 -44 -10 -15 -10 -26 -2 -44 7 -16 8 -30 1 -41 -5 -10 -6 -27 -2 -40
5 -12 6 -26 4 -32 -2 -5 -4 -93 -5 -195 -3 -196 4 -230 45 -230 15 0 20 10 26
56 3 31 4 94 1 140 -2 46 -2 85 1 88 8 9 9 199 0 217 -4 9 -2 24 6 35 10 13
11 24 3 41 -8 17 -7 30 3 48 10 19 10 27 1 39 -10 12 -9 21 3 44 13 26 13 30
-1 45 -15 15 -15 18 2 37 16 18 17 23 5 45 -11 21 -11 27 3 43 15 17 15 20 1
41 -15 20 -15 24 0 40 14 15 15 23 5 44 -9 21 -9 30 1 42 17 21 33 19 48 -6
11 -18 11 -24 -4 -40 -16 -18 -16 -20 -1 -37 21 -23 21 -36 2 -52 -14 -11 -14
-15 0 -37 14 -21 15 -27 2 -46 -12 -19 -12 -25 1 -45 13 -20 13 -24 -3 -42
-17 -19 -17 -21 0 -40 16 -18 16 -22 3 -42 -11 -17 -13 -29 -5 -46 8 -17 8
-29 0 -40 -7 -12 -7 -24 0 -40 7 -15 7 -30 -2 -48 -9 -20 -9 -30 0 -40 7 -8 8
-24 4 -41 -5 -16 -8 -68 -9 -117 -1 -82 1 -90 23 -108 35 -27 45 -18 48 43 1
30 4 92 6 139 2 47 5 90 7 95 2 6 1 20 -4 32 -4 12 -2 31 4 43 8 14 8 26 0 41
-9 16 -8 24 5 39 14 15 14 22 5 40 -9 18 -9 28 1 47 11 20 11 28 0 45 -10 17
-10 23 4 38 13 14 14 22 4 43 -9 20 -8 30 5 48 14 21 14 24 -1 41 -15 17 -15
19 3 39 15 17 16 23 5 40 -10 17 -9 25 4 45 12 19 13 27 3 43 -10 16 -9 25 1
45 11 21 12 28 1 41 -10 12 -9 19 4 40 13 20 14 29 4 44 -9 15 -8 24 5 44 14
22 14 27 2 37 -20 17 -19 37 2 49 15 8 15 13 5 36 -11 23 -10 30 3 45 14 15
14 22 5 40 -9 18 -9 28 1 47 11 20 11 28 0 45 -10 17 -10 23 4 38 13 14 14 22
4 44 -10 22 -9 29 6 46 17 19 17 21 0 40 -18 20 -18 21 3 43 l22 21 21 -21
c20 -19 20 -22 5 -45 -15 -23 -15 -27 -1 -38 19 -16 19 -34 0 -50 -12 -10 -13
-16 -1 -39 12 -22 12 -29 1 -45 -12 -15 -12 -22 0 -40 13 -19 13 -25 0 -44
-13 -17 -13 -25 -3 -41 9 -15 9 -25 0 -47 -11 -22 -10 -29 4 -45 16 -18 16
-20 0 -38 -15 -16 -15 -22 -5 -39 10 -16 10 -26 1 -48 -11 -22 -10 -29 4 -45
16 -18 16 -20 0 -38 -14 -15 -15 -23 -5 -44 9 -21 9 -30 -1 -42 -11 -13 -11
-20 1 -41 10 -20 10 -29 1 -44 -9 -14 -9 -26 -1 -43 8 -18 8 -30 0 -46 -9 -15
-8 -25 1 -40 10 -16 9 -25 -1 -44 -10 -19 -10 -29 -2 -46 7 -12 8 -27 4 -34
-4 -6 -9 -76 -9 -154 -2 -151 0 -160 46 -165 23 -3 23 -3 28 137 2 77 3 155 3
174 -1 18 4 40 10 47 7 9 7 19 -1 35 -9 16 -9 27 0 44 9 17 9 28 0 45 -9 18
-8 25 6 41 15 17 15 23 4 44 -10 19 -11 27 -1 39 8 10 10 27 6 46 -4 19 -2 36
6 46 10 12 9 20 -1 39 -11 21 -11 27 4 44 15 16 15 22 5 39 -11 17 -11 25 0
45 10 19 10 29 1 47 -9 18 -9 25 5 40 13 14 14 22 4 44 -10 21 -9 29 4 44 15
17 15 20 1 41 -15 20 -15 24 2 42 15 17 16 22 4 44 -12 22 -11 28 2 42 13 12
14 21 6 39 -9 18 -8 30 1 48 10 17 10 29 2 43 -7 15 -6 25 5 41 12 17 12 25 3
40 -10 15 -9 24 4 42 13 18 14 27 5 37 -9 11 -8 23 1 49 10 26 10 38 1 49 -9
10 -7 20 6 39 13 21 14 29 4 41 -11 13 -10 20 1 41 11 21 11 29 0 46 -10 17
-10 23 4 38 13 15 14 23 5 39 -8 16 -7 28 5 50 9 19 11 32 5 36 -15 9 -12 41
5 55 13 11 13 15 0 33 -16 23 -4 57 20 57 24 0 36 -34 20 -57 -13 -18 -13 -22
0 -33 18 -15 19 -42 4 -57 -8 -8 -7 -17 4 -33 12 -17 13 -27 3 -52 -8 -24 -8
-32 2 -35 15 -6 16 -40 0 -45 -9 -3 -9 -11 1 -35 10 -24 10 -36 1 -53 -9 -18
-8 -25 5 -40 14 -15 14 -22 5 -40 -9 -17 -9 -28 0 -45 9 -17 9 -28 0 -45 -9
-18 -9 -25 5 -40 14 -15 14 -21 4 -38 -10 -16 -10 -26 -1 -46 9 -20 9 -32 0
-52 -10 -20 -9 -27 2 -34 12 -7 13 -15 4 -39 -10 -24 -9 -32 5 -45 13 -14 14
-20 3 -37 -11 -17 -11 -27 -2 -49 9 -21 9 -33 0 -50 -9 -17 -9 -25 3 -38 13
-15 13 -21 2 -42 -12 -21 -11 -27 2 -43 14 -14 14 -21 4 -41 -10 -19 -10 -27
0 -44 10 -16 10 -26 1 -46 -7 -15 -8 -28 -2 -31 5 -3 8 -43 6 -88 -2 -45 0
-90 5 -99 6 -12 6 -25 -1 -38 -8 -15 -6 -23 12 -40 40 -37 56 -27 57 35 0 31
3 60 6 65 3 5 1 19 -6 31 -8 16 -8 27 1 44 9 16 9 28 2 41 -7 12 -7 25 0 40 7
15 6 28 -2 44 -9 18 -9 25 6 41 15 17 15 20 0 43 -14 23 -14 26 0 41 14 13 14
20 4 45 -10 24 -10 33 0 45 10 12 10 21 1 42 -10 21 -9 29 4 43 14 15 14 21 4
38 -11 17 -11 25 0 45 10 19 10 29 2 46 -9 17 -9 26 3 42 11 17 12 26 3 39 -8
14 -8 25 1 45 9 20 9 30 0 45 -9 15 -9 24 1 43 11 20 11 28 0 45 -11 18 -10
24 5 41 18 20 18 22 1 41 -17 19 -17 21 0 40 16 17 16 24 6 44 -11 19 -10 27
0 45 11 17 12 25 1 42 -11 18 -11 24 3 39 13 14 14 22 4 44 -11 22 -10 29 4
43 14 14 14 18 1 38 -27 41 15 78 46 40 10 -13 9 -19 -6 -36 -18 -20 -18 -21
1 -35 16 -12 17 -19 9 -42 -8 -20 -7 -33 4 -49 10 -17 11 -26 2 -43 -9 -18 -8
-25 6 -41 15 -16 15 -23 5 -43 -10 -19 -10 -27 0 -44 10 -16 10 -26 2 -45 -9
-20 -8 -28 5 -40 13 -14 14 -20 2 -42 -12 -22 -11 -27 4 -44 15 -16 15 -22 5
-39 -11 -17 -11 -25 0 -46 11 -20 11 -28 2 -40 -10 -12 -9 -20 4 -40 13 -19
14 -29 5 -46 -8 -16 -8 -25 4 -42 11 -16 12 -26 5 -41 -8 -14 -8 -26 2 -44 10
-19 11 -28 1 -44 -9 -15 -10 -25 -1 -40 6 -12 8 -34 5 -50 -4 -23 -1 -32 19
-45 43 -28 50 -15 49 82 -1 49 3 97 7 106 6 11 5 25 -3 37 -10 17 -9 23 6 40
19 20 19 22 1 41 -18 20 -18 21 1 41 l20 20 19 -21 c17 -19 17 -21 1 -39 -14
-16 -15 -23 -6 -41 6 -12 8 -34 5 -50 -5 -24 -2 -32 19 -45 40 -26 55 -14 49
38 -3 26 -1 47 5 51 6 4 8 21 5 41 -3 21 -1 41 6 49 10 11 10 20 1 36 -9 18
-8 25 6 41 14 15 15 24 6 43 -9 20 -7 27 8 41 14 13 17 23 10 40 -6 16 -4 29
7 45 12 18 14 27 5 41 -9 14 -7 22 7 40 15 18 16 28 8 46 -8 18 -6 27 7 42 14
16 15 23 6 41 -10 19 -9 26 8 43 16 15 18 24 10 37 -15 23 -3 50 21 50 28 0
35 -17 17 -45 -13 -20 -13 -25 -1 -35 18 -15 19 -42 3 -58 -9 -9 -7 -16 7 -32
16 -18 17 -24 6 -41 -10 -17 -9 -25 4 -46 12 -18 14 -28 6 -36 -15 -15 -14
-36 4 -53 13 -14 13 -18 0 -37 -13 -19 -13 -23 2 -39 13 -15 14 -23 4 -44 -9
-20 -8 -29 3 -46 11 -16 12 -26 4 -44 -9 -19 -8 -28 5 -42 15 -17 15 -20 1
-41 -15 -20 -15 -24 2 -42 15 -17 16 -22 4 -44 -11 -21 -11 -27 4 -44 15 -16
15 -22 5 -39 -11 -17 -11 -25 0 -45 10 -19 10 -29 1 -47 -17 -31 -2 -42 67
-51 44 -6 61 -5 73 6 14 13 19 13 38 -1 18 -12 25 -12 42 -2 16 10 24 10 40 0
15 -9 25 -9 45 0 21 9 31 9 46 0 16 -10 24 -10 42 3 12 8 28 15 36 15 28 0 50
31 44 61 -4 21 -1 30 11 35 10 4 16 18 16 39 0 18 7 38 15 45 8 7 14 25 12 44
-2 27 1 31 23 31 22 0 25 -4 25 -35 1 -19 5 -43 9 -53 5 -11 4 -28 -2 -41 -8
-18 -7 -27 5 -39 12 -12 13 -21 5 -45 -8 -23 -7 -33 4 -44 11 -11 12 -21 5
-40 -7 -19 -6 -29 7 -41 13 -14 14 -20 2 -42 -11 -21 -11 -27 3 -43 20 -22 22
-39 5 -45 -10 -3 -9 -12 5 -35 15 -26 15 -35 5 -51 -10 -17 -9 -23 6 -40 15
-17 16 -24 7 -35 -8 -10 -10 -24 -5 -38 8 -22 13 -74 14 -145 0 -23 7 -37 25
-49 34 -22 43 -12 43 46 1 28 3 54 6 59 4 5 2 21 -4 36 -7 19 -7 31 0 40 7 8
8 28 4 49 -4 25 -3 36 6 36 9 0 10 11 6 36 -5 22 -3 41 5 50 9 11 9 20 0 41
-10 21 -9 29 5 44 15 17 15 23 4 44 -11 21 -11 27 4 44 15 16 15 22 5 39 -11
18 -10 24 4 40 15 16 16 24 6 46 -11 22 -10 29 3 43 13 12 14 20 5 40 -8 18
-8 29 1 44 7 11 9 30 6 44 -4 15 -1 32 6 40 10 12 10 22 2 39 -8 18 -7 29 5
46 13 19 13 25 2 47 -12 22 -11 27 5 39 17 12 18 17 7 40 -10 22 -9 30 4 44
13 14 14 22 4 44 -11 22 -10 29 3 43 13 12 14 21 6 39 -13 28 3 54 34 54 24 0
33 -23 18 -50 -9 -18 -8 -25 6 -41 14 -16 15 -23 5 -45 -10 -22 -9 -28 6 -39
15 -11 15 -17 5 -40 -11 -24 -10 -30 5 -47 14 -16 15 -22 4 -40 -10 -17 -10
-23 5 -39 14 -16 15 -23 5 -45 -10 -22 -9 -30 6 -46 14 -16 15 -23 5 -39 -10
-16 -9 -24 4 -43 12 -20 13 -29 4 -46 -9 -18 -8 -25 6 -41 15 -16 15 -23 4
-43 -11 -21 -10 -27 4 -41 19 -19 19 -20 5 -46 -8 -16 -7 -25 7 -40 15 -16 16
-24 6 -39 -14 -23 -7 -47 19 -60 29 -16 39 -12 39 19 0 15 9 40 21 55 14 18
19 35 15 50 -4 16 1 29 14 41 14 12 17 25 13 46 -4 21 -1 30 11 35 10 4 16 18
16 39 0 18 7 38 15 45 11 9 14 22 10 41 -5 20 -2 30 12 37 12 7 18 22 18 44 0
27 4 34 23 36 24 4 28 -9 11 -40 -9 -17 -8 -24 5 -33 19 -14 21 -36 5 -52 -8
-8 -6 -18 6 -36 13 -21 14 -30 5 -47 -9 -17 -8 -25 5 -40 13 -15 14 -22 5 -40
-9 -18 -8 -25 6 -41 15 -17 15 -23 4 -44 -11 -21 -11 -27 4 -44 14 -15 15 -23
5 -45 -11 -23 -10 -28 7 -40 16 -13 17 -17 5 -40 -11 -20 -11 -28 -2 -40 8 -9
10 -28 6 -49 -5 -27 -3 -37 10 -44 14 -8 14 -14 4 -36 -9 -21 -9 -30 0 -41 8
-9 10 -28 6 -49 -4 -22 -3 -37 5 -42 7 -4 9 -18 5 -37 -5 -21 -2 -35 11 -49
16 -18 16 -20 1 -37 -15 -17 -15 -20 -1 -41 12 -17 14 -28 7 -44 -7 -16 -6
-28 5 -45 13 -20 13 -27 3 -45 -12 -18 -11 -23 9 -39 12 -10 31 -18 42 -18 17
0 19 5 14 33 -4 22 -1 40 9 52 9 13 12 31 9 52 -5 25 -2 34 11 39 13 5 15 14
11 39 -5 23 -2 36 10 46 10 8 14 22 10 40 -3 18 0 32 10 40 9 7 14 24 12 40
-1 16 5 36 15 47 16 17 17 24 6 43 -10 20 -9 25 9 37 17 11 20 20 15 44 -4 23
-2 33 11 40 13 7 16 17 11 37 -4 19 -1 32 10 41 12 10 15 23 10 47 -4 25 -2
35 10 40 13 4 15 14 11 38 -5 24 -2 36 13 49 12 11 17 25 13 38 -4 17 -2 20
12 15 9 -4 25 -1 36 5 14 9 25 9 46 0 22 -11 29 -10 45 4 18 16 20 16 39 -1
20 -18 21 -18 50 10 47 45 29 52 -112 50 -68 -2 -127 -3 -131 -4 -5 -1 -7 -11
-5 -23 2 -17 -3 -24 -19 -26 -16 -2 -23 -10 -23 -26 0 -12 -5 -27 -10 -32 -6
-6 -12 -24 -14 -41 -3 -17 -9 -39 -14 -50 -5 -10 -12 -42 -16 -72 -4 -30 -14
-63 -22 -75 -8 -11 -14 -33 -14 -48 0 -15 -4 -37 -9 -50 -5 -13 -15 -49 -22
-81 -7 -32 -16 -60 -21 -63 -4 -3 -8 -20 -8 -39 0 -19 -4 -36 -8 -39 -22 -13
-31 17 -37 129 -4 66 -10 125 -15 130 -4 6 -11 55 -15 110 -4 55 -9 118 -10
140 -2 22 -9 81 -16 130 -6 50 -13 115 -15 145 -3 72 -23 193 -33 200 -5 3
-15 19 -24 36 -16 31 -41 49 -57 39 -4 -2 -10 -22 -14 -42 -3 -21 -13 -51 -21
-67 -8 -15 -15 -38 -15 -50 0 -12 -7 -31 -15 -42 -8 -10 -15 -31 -15 -46 0
-15 -4 -30 -10 -33 -5 -3 -10 -15 -10 -26 0 -22 -42 -118 -51 -119 -7 0 -24
126 -34 250 -2 25 -11 99 -19 164 -9 66 -15 129 -15 140 0 12 -5 50 -11 86
-11 70 -21 153 -24 210 -3 53 -18 120 -27 126 -5 3 -9 13 -9 23 0 38 -70 71
-70 34 0 -10 -5 -51 -10 -91 -5 -40 -12 -117 -16 -170 -3 -53 -10 -102 -15
-108 -5 -6 -6 -25 -3 -43 4 -18 2 -37 -5 -45 -6 -7 -9 -20 -6 -29 4 -8 1 -51
-5 -95 -6 -44 -13 -107 -15 -139 -3 -32 -8 -83 -11 -113 -7 -70 -11 -116 -19
-215 -7 -90 -10 -96 -31 -88 -9 3 -15 19 -15 42 0 20 -2 56 -5 81 -3 25 -7 63
-10 85 -2 22 -6 60 -8 85 -3 25 -8 74 -11 110 -3 35 -11 70 -16 77 -6 7 -8 16
-5 22 11 17 -39 65 -58 58 -10 -4 -16 -13 -13 -21 6 -15 -19 -95 -34 -111 -5
-5 -9 -19 -9 -31 0 -12 -7 -35 -15 -50 -8 -16 -15 -38 -15 -50 0 -23 -15 -73
-36 -121 -8 -17 -14 -36 -14 -42 0 -6 -8 -15 -18 -20 -20 -10 -301 -9 -318 2
-12 7 -30 186 -25 249 1 21 -1 43 -5 49 -4 7 -8 35 -10 63 -1 28 -6 96 -9 151
-4 55 -9 118 -10 140 -6 82 -15 191 -21 236 -3 25 -7 83 -9 129 -2 64 -7 87
-20 96 -9 7 -14 18 -10 24 10 16 -22 60 -43 60 -20 0 -42 -77 -42 -151 0 -25
-5 -50 -11 -56 -6 -6 -13 -41 -15 -78 -2 -37 -11 -87 -19 -110 -7 -23 -12 -51
-9 -61 3 -11 -2 -28 -10 -39 -15 -20 -15 -20 -16 1 0 11 -3 24 -7 27 -3 4 -8
96 -9 205 -4 222 -13 499 -19 552 -3 35 -38 74 -59 67 -13 -4 -14 -11 -20
-177 -2 -69 -6 -125 -7 -125 -2 0 -10 -127 -9 -152 1 -37 0 -57 -6 -163 -4
-63 -7 -136 -7 -162 0 -33 -4 -48 -13 -48 -20 0 -22 9 -29 125 -3 61 -9 137
-14 170 -5 33 -7 65 -4 71 2 6 0 22 -6 35 -5 14 -5 32 0 40 5 9 4 31 -1 50 -8
29 -21 158 -20 197 0 31 0 41 -6 102 -3 36 -6 75 -7 87 -1 12 -5 25 -9 29 -5
4 -8 19 -8 34 0 26 -26 60 -47 60 -20 0 -24 -40 -38 -405 -1 -49 -6 -151 -9
-225 -3 -74 -8 -202 -11 -285 -7 -170 -8 -177 -30 -169 -13 5 -16 21 -14 83 1
42 -1 112 -4 156 -4 44 -9 143 -12 220 -3 77 -8 194 -11 260 -3 66 -7 161 -8
210 -2 50 -6 97 -9 105 -3 8 -8 34 -10 58 -6 48 -21 72 -47 72 -23 0 -33 -42
-36 -145 -2 -44 -5 -111 -8 -150 -2 -38 -8 -113 -11 -165 -4 -52 -9 -117 -12
-145 -3 -27 -6 -75 -8 -105 -5 -128 -16 -266 -24 -300 -5 -21 -5 -44 -1 -51 8
-15 -5 -59 -17 -59 -15 0 -32 73 -22 98 5 13 6 28 3 34 -4 6 -6 70 -4 142 6
323 4 758 -3 763 -5 3 -6 14 -4 25 4 13 -3 29 -18 44 -24 24 -44 31 -46 17 0
-5 -2 -21 -4 -38 -4 -34 -14 -152 -22 -270 -2 -44 -7 -105 -9 -135 -3 -30 -6
-86 -8 -125 -2 -38 -6 -101 -10 -140 -3 -38 -8 -97 -10 -130 -1 -33 -6 -105
-10 -160 -3 -55 -8 -131 -11 -170 -2 -38 -5 -72 -6 -75 -1 -3 -3 -23 -4 -45
-8 -199 -26 -295 -39 -214 -3 19 -4 346 -3 727 1 382 -2 696 -6 699 -5 3 -6
15 -3 28 4 15 -2 29 -18 45 -35 32 -49 22 -52 -41 -7 -142 -17 -352 -20 -424
-4 -115 -12 -292 -19 -430 -3 -66 -6 -144 -5 -174 1 -54 -15 -111 -31 -111 -8
0 -14 30 -10 52 7 51 -9 969 -18 1003 -10 39 -36 68 -55 62 -16 -5 -23 -58
-25 -183 -1 -64 -3 -120 -6 -123 -4 -8 -17 -218 -21 -346 -1 -38 -4 -104 -7
-145 -3 -41 -9 -129 -12 -195 -3 -66 -8 -154 -11 -195 -10 -157 -15 -247 -18
-320 -1 -41 -7 -86 -13 -99 l-10 -25 -8 30 c-11 42 -13 107 -4 120 5 6 7 26 4
45 -3 19 -7 311 -8 649 -2 338 -6 620 -10 627 -4 6 -4 18 -1 27 8 21 -44 72
-58 58 -6 -6 -13 -46 -15 -89 -2 -43 -6 -127 -9 -188 -3 -60 -7 -144 -9 -185
-4 -85 -11 -224 -21 -415 -4 -71 -8 -161 -9 -200 -1 -38 -3 -74 -5 -80 -2 -5
-5 -48 -6 -95 -1 -47 -5 -141 -9 -210 -4 -69 -8 -145 -8 -170 -2 -33 -6 -45
-17 -45 -13 0 -15 41 -17 300 -4 422 -13 1115 -16 1146 -3 35 -26 61 -51 57
-22 -3 -21 3 -31 -208 -2 -47 -7 -125 -10 -175 -12 -181 -25 -407 -29 -525 -3
-71 -14 -120 -26 -120 -17 0 -19 65 -16 543 1 270 -1 490 -6 493 -5 3 -6 15
-3 26 8 23 -20 58 -47 58 -13 0 -19 -8 -20 -32 -4 -71 -6 -120 -12 -288 -4
-96 -9 -211 -12 -255 -2 -44 -7 -138 -10 -210 -8 -213 -8 -210 -24 -210 -11 0
-15 12 -16 45 -1 25 -2 47 -3 50 -1 3 -3 223 -5 490 -2 267 -6 493 -10 502 -4
9 -5 22 -1 28 8 13 -32 60 -51 60 -15 0 -23 -73 -30 -280 -2 -85 -6 -202 -9
-260 -8 -211 -17 -488 -18 -592 -1 -58 -5 -110 -9 -113 -4 -4 -5 -28 -1 -52 5
-41 4 -45 -13 -41 -17 3 -19 13 -20 88 -1 47 -4 182 -7 300 -4 118 -9 325 -12
460 -5 240 -13 474 -18 516 -3 30 -26 54 -52 54 -20 0 -23 -5 -22 -37 1 -35
-3 -147 -18 -528 -3 -77 -8 -185 -10 -240 -2 -55 -7 -176 -11 -270 -4 -93 -7
-189 -8 -212 -1 -22 -4 -44 -8 -48 -4 -4 -2 -18 4 -31 12 -26 -1 -52 -20 -40
-11 6 -8 123 2 133 3 3 1 14 -4 23 -5 10 -12 148 -15 306 -4 159 -8 366 -11
459 -2 94 -4 176 -4 183 2 70 -6 207 -14 224 -4 9 -5 22 -1 28 8 13 -32 60
-52 60 -8 0 -13 -13 -14 -32 -1 -18 -3 -69 -6 -113 -4 -73 -6 -135 -4 -167 1
-7 0 -49 -2 -93 -2 -67 -5 -80 -19 -83 -16 -3 -18 8 -18 115 0 214 0 219 -6
258 -2 17 -4 39 -5 50 0 19 -35 65 -50 65 -4 0 -10 -4 -13 -9z m1854 -471 c0
-5 -4 -10 -10 -10 -5 0 -10 5 -10 10 0 6 5 10 10 10 6 0 10 -4 10 -10z m-1749
-57 c7 -18 6 -30 -1 -37 -16 -16 -32 7 -24 38 8 33 12 33 25 -1z m1753 -22 c3
-5 -1 -14 -8 -20 -16 -13 -32 2 -21 19 8 12 22 13 29 1z m1 -96 c0 -28 -29
-25 -33 3 -3 19 0 23 15 20 10 -2 18 -12 18 -23z m-1755 -1 c0 -17 -22 -14
-28 4 -2 7 3 12 12 12 9 0 16 -7 16 -16z m1978 4 c-3 -7 -11 -13 -18 -13 -7 0
-15 6 -17 13 -3 7 4 12 17 12 13 0 20 -5 18 -12z m-2053 -38 c3 -5 1 -10 -4
-10 -6 0 -11 5 -11 10 0 6 2 10 4 10 3 0 8 -4 11 -10z m1833 -32 c17 -17 15
-26 -7 -38 -26 -14 -58 15 -40 36 14 17 31 18 47 2z m-218 -8 c0 -5 -4 -10
-10 -10 -5 0 -10 5 -10 10 0 6 5 10 10 10 6 0 10 -4 10 -10z m440 -10 c0 -13
-7 -20 -20 -20 -13 0 -20 7 -20 20 0 13 7 20 20 20 13 0 20 -7 20 -20z m-1980
0 c0 -5 -4 -10 -10 -10 -5 0 -10 5 -10 10 0 6 5 10 10 10 6 0 10 -4 10 -10z
m-560 -24 c0 -8 -4 -17 -9 -21 -12 -7 -24 12 -16 25 9 15 25 12 25 -4z m170
-6 c0 -5 -2 -10 -4 -10 -3 0 -8 5 -11 10 -3 6 -1 10 4 10 6 0 11 -4 11 -10z
m84 -51 c-8 -14 -34 -11 -34 4 0 6 3 22 6 35 l7 23 13 -27 c8 -14 11 -30 8
-35z m236 40 c0 -5 -7 -9 -15 -9 -15 0 -20 12 -9 23 8 8 24 -1 24 -14z m1610
-40 c0 -5 -7 -9 -15 -9 -15 0 -20 12 -9 23 8 8 24 -1 24 -14z m448 -2 c2 -9
-4 -20 -12 -23 -21 -8 -46 13 -39 32 8 20 47 13 51 -9z m-2538 -33 c0 -19 -28
-30 -42 -16 -8 8 -8 15 1 26 14 17 41 10 41 -10z m-200 8 c0 -13 -12 -22 -22
-16 -10 6 -1 24 13 24 5 0 9 -4 9 -8z m672 -24 c-15 -15 -26 -4 -18 18 5 13 9
15 18 6 9 -9 9 -15 0 -24z m-312 12 c0 -5 -2 -10 -4 -10 -3 0 -8 5 -11 10 -3
6 -1 10 4 10 6 0 11 -4 11 -10z m635 0 c3 -5 1 -10 -4 -10 -6 0 -11 5 -11 10
0 6 2 10 4 10 3 0 8 -4 11 -10z m915 -26 c0 -8 -4 -12 -10 -9 -5 3 -10 10 -10
16 0 5 5 9 10 9 6 0 10 -7 10 -16z m-1474 -41 c-7 -17 -8 -17 -17 0 -12 21 -2
44 13 29 6 -6 8 -19 4 -29z m1852 26 c-2 -6 -8 -10 -13 -10 -5 0 -11 4 -13 10
-2 6 4 11 13 11 9 0 15 -5 13 -11z m847 -19 c0 -8 -8 -16 -17 -18 -13 -2 -18
3 -18 18 0 15 5 20 18 18 9 -2 17 -10 17 -18z m-2937 -24 c-4 -25 -36 -34 -44
-12 -8 21 13 46 32 39 8 -3 14 -15 12 -27z m-193 3 c0 -7 -8 -15 -17 -17 -18
-3 -25 18 -11 32 10 10 28 1 28 -15z m355 1 c0 -5 -4 -10 -10 -10 -5 0 -10 5
-10 10 0 6 5 10 10 10 6 0 10 -4 10 -10z m318 -7 c-2 -10 -10 -18 -18 -18 -8
0 -16 8 -18 18 -2 12 3 17 18 17 15 0 20 -5 18 -17z m322 -4 c0 -5 -7 -9 -15
-9 -15 0 -20 12 -9 23 8 8 24 -1 24 -14z m-418 -41 c-13 -13 -26 8 -17 30 6
16 7 16 17 -1 7 -13 7 -22 0 -29z m1334 31 c10 -17 -13 -36 -27 -22 -12 12 -4
33 11 33 5 0 12 -5 16 -11z m367 -24 c1 -5 -6 -11 -15 -13 -11 -2 -18 3 -18
13 0 17 30 18 33 0z m637 -5 c0 -5 -4 -10 -10 -10 -5 0 -10 5 -10 10 0 6 5 10
10 10 6 0 10 -4 10 -10z m-2717 -25 c3 -7 -1 -22 -10 -34 -12 -17 -18 -20 -29
-10 -17 14 -18 56 -1 62 17 6 34 -2 40 -18z m-195 -8 c4 -21 -27 -35 -38 -17
-12 19 0 42 19 38 9 -2 17 -11 19 -21z m357 2 c10 -15 -1 -23 -20 -15 -9 3
-13 10 -10 16 8 13 22 13 30 -1z m145 -4 c0 -8 -7 -15 -15 -15 -16 0 -20 12
-8 23 11 12 23 8 23 -8z m173 1 c9 -22 -19 -42 -37 -26 -19 15 -10 40 14 40
10 0 20 -6 23 -14z m135 -7 c-2 -6 -8 -10 -13 -10 -5 0 -11 4 -13 10 -2 6 4
11 13 11 9 0 15 -5 13 -11z m182 -4 c0 -8 -7 -15 -15 -15 -8 0 -15 7 -15 15 0
8 7 15 15 15 8 0 15 -7 15 -15z m910 -20 c0 -8 -7 -15 -15 -15 -8 0 -15 7 -15
15 0 8 7 15 15 15 8 0 15 -7 15 -15z m-3780 -9 c0 -15 -24 -28 -34 -19 -13 14
-5 33 14 33 11 0 20 -6 20 -14z m2150 4 c0 -5 -4 -10 -10 -10 -5 0 -10 5 -10
10 0 6 5 10 10 10 6 0 10 -4 10 -10z m2005 0 c4 -6 1 -18 -6 -26 -11 -13 -14
-13 -27 0 -8 8 -11 19 -8 25 9 14 33 14 41 1z m640 -9 c7 -12 -12 -24 -25 -16
-11 7 -4 25 10 25 5 0 11 -4 15 -9z m1137 -23 c-15 -15 -26 -4 -18 18 5 13 9
15 18 6 9 -9 9 -15 0 -24z m-4052 -3 c10 -13 10 -19 -5 -35 -23 -25 -27 -25
-43 1 -23 37 20 67 48 34z m355 -16 c0 -7 -8 -15 -17 -17 -18 -3 -25 18 -11
32 10 10 28 1 28 -15z m149 -10 c-8 -14 -34 -11 -34 4 0 8 3 17 7 20 9 9 34
-13 27 -24z m167 15 c11 -14 10 -18 -6 -30 -16 -12 -21 -12 -34 0 -12 12 -12
18 -1 30 16 20 24 20 41 0z m324 -14 c0 -8 -8 -16 -17 -18 -13 -2 -18 3 -18
18 0 15 5 20 18 18 9 -2 17 -10 17 -18z m-185 6 c0 -11 -19 -15 -25 -6 -3 5 1
10 9 10 9 0 16 -2 16 -4z m690 -16 c0 -5 -4 -10 -10 -10 -5 0 -10 5 -10 10 0
6 5 10 10 10 6 0 10 -4 10 -10z m408 -13 c2 -11 -3 -17 -17 -17 -23 0 -35 15
-26 31 10 15 39 6 43 -14z m370 -16 c-2 -9 -11 -17 -21 -19 -21 -4 -35 27 -17
38 19 12 42 0 38 -19z m1788 4 c6 -15 -12 -45 -27 -45 -11 0 -22 38 -14 50 9
15 35 12 41 -5z m-1148 -7 c-3 -7 -11 -13 -18 -13 -7 0 -15 6 -17 13 -3 7 4
12 17 12 13 0 20 -5 18 -12z m-2562 -47 c-9 -14 -33 -14 -41 -1 -4 6 -1 18 6
26 11 13 14 13 27 0 8 -8 11 -19 8 -25z m312 22 c20 -39 -21 -61 -49 -27 -11
14 -10 18 6 30 25 18 32 18 43 -3z m-168 -7 c0 -21 -21 -31 -30 -15 -5 7 -6
17 -4 21 9 14 34 9 34 -6z m498 -9 c4 -21 -25 -34 -40 -19 -8 8 -8 16 2 27 16
19 34 15 38 -8z m-188 4 c0 -14 -18 -23 -30 -16 -6 4 -8 11 -5 16 8 12 35 12
35 0z m354 -12 c-3 -5 -10 -7 -15 -3 -5 3 -7 10 -3 15 3 5 10 7 15 3 5 -3 7
-10 3 -15z m1201 11 c9 -15 -4 -50 -20 -50 -16 0 -29 35 -20 50 3 5 12 10 20
10 8 0 17 -5 20 -10z m-873 -15 c0 -5 -5 -11 -11 -13 -6 -2 -11 4 -11 13 0 9
5 15 11 13 6 -2 11 -8 11 -13z m208 -6 c0 -5 -7 -9 -15 -9 -15 0 -20 12 -9 23
8 8 24 -1 24 -14z m200 6 c13 -16 6 -35 -15 -35 -18 0 -28 17 -21 35 7 19 20
19 36 0z m930 5 c0 -5 -4 -10 -10 -10 -5 0 -10 5 -10 10 0 6 5 10 10 10 6 0
10 -4 10 -10z m-762 -21 c-2 -6 -8 -10 -13 -10 -5 0 -11 4 -13 10 -2 6 4 11
13 11 9 0 15 -5 13 -11z m205 -1 c7 -21 -4 -38 -23 -38 -19 0 -34 25 -24 41 8
13 42 11 47 -3z m651 -7 c9 -15 -23 -36 -36 -23 -5 5 -7 15 -4 21 9 13 33 14
40 2z m-2254 -32 c9 -16 8 -25 -6 -40 -22 -25 -29 -24 -42 5 -8 18 -7 27 6 40
21 21 29 20 42 -5z m-315 -14 c0 -11 -7 -21 -16 -23 -18 -3 -33 23 -23 39 10
17 39 5 39 -16z m144 16 c17 -11 7 -41 -13 -41 -19 0 -29 17 -22 35 6 17 15
18 35 6z m501 -21 c0 -10 -6 -20 -12 -23 -21 -7 -38 4 -38 23 0 10 6 20 13 23
20 7 37 -4 37 -23z m993 18 c6 -20 -4 -49 -17 -45 -18 6 -20 57 -2 57 8 0 16
-6 19 -12z m-1180 -4 c9 -10 -4 -34 -18 -34 -17 0 -28 17 -20 30 7 11 28 13
38 4z m1545 -30 c-1 -9 -8 -19 -14 -21 -16 -5 -24 33 -11 46 14 14 30 -1 25
-25z m-1188 16 c0 -5 -4 -10 -10 -10 -5 0 -10 5 -10 10 0 6 5 10 10 10 6 0 10
-4 10 -10z m83 -17 c3 -16 1 -33 -4 -40 -6 -6 -7 -28 -3 -47 5 -28 3 -36 -8
-36 -13 0 -16 44 -9 133 2 27 18 20 24 -10z m239 -5 c-15 -15 -26 -4 -18 18 5
13 9 15 18 6 9 -9 9 -15 0 -24z m1110 17 c0 -5 -5 -11 -11 -13 -6 -2 -11 4
-11 13 0 9 5 15 11 13 6 -2 11 -8 11 -13z m-910 -10 c0 -5 -5 -11 -11 -13 -6
-2 -11 4 -11 13 0 9 5 15 11 13 6 -2 11 -8 11 -13z m216 -8 c2 -9 -4 -20 -13
-23 -20 -8 -50 19 -40 36 10 17 49 8 53 -13z m362 -2 c10 -12 10 -18 0 -30
-25 -30 -61 -7 -46 30 3 8 12 15 19 15 8 0 20 -7 27 -15z m-3772 -18 c4 -22
-27 -35 -38 -16 -10 15 7 42 24 36 6 -2 12 -11 14 -20z m3572 13 c0 -5 -7 -10
-15 -10 -8 0 -15 5 -15 10 0 6 7 10 15 10 8 0 15 -4 15 -10z m845 -15 c0 -28
-29 -25 -33 3 -3 19 0 23 15 20 10 -2 18 -12 18 -23z m-2560 -35 c0 -29 -32
-41 -41 -16 -9 24 4 48 23 44 12 -2 18 -12 18 -28z m145 15 c10 -12 10 -18 0
-29 -14 -18 -40 -10 -40 13 0 32 20 40 40 16z m1488 -2 c-5 -25 -28 -28 -28
-4 0 12 6 21 16 21 9 0 14 -7 12 -17z m-1181 -9 c8 -20 -8 -36 -26 -25 -15 10
-8 41 9 41 6 0 13 -7 17 -16z m190 0 c7 -19 -20 -49 -36 -40 -12 8 -15 39 -4
49 12 12 33 7 40 -9z m171 -12 c2 -7 -3 -12 -12 -12 -9 0 -16 7 -16 16 0 17
22 14 28 -4z m1182 -8 c0 -8 -4 -12 -10 -9 -5 3 -10 13 -10 21 0 8 5 12 10 9
6 -3 10 -13 10 -21z m-852 -1 c-2 -10 -10 -18 -18 -18 -8 0 -16 8 -18 18 -2
12 3 17 18 17 15 0 20 -5 18 -17z m192 -3 c0 -11 -4 -20 -9 -20 -13 0 -32 26
-24 33 13 14 33 6 33 -13z m217 4 c3 -8 -2 -23 -11 -32 -15 -15 -17 -15 -32 0
-21 21 -11 48 16 48 11 0 23 -7 27 -16z m367 -17 c13 -21 -15 -53 -38 -44 -26
10 -31 38 -11 54 22 16 35 13 49 -10z m-204 4 c0 -14 -18 -23 -30 -16 -6 4 -8
11 -5 16 8 12 35 12 35 0z m850 -7 c11 -12 10 -18 -3 -31 -13 -13 -19 -14 -31
-3 -19 15 -21 36 -3 43 20 9 24 8 37 -9z m-1516 -61 c-1 -58 -12 -83 -25 -62
-10 17 -12 103 -2 113 17 16 28 -5 27 -51z m-1044 32 c10 -13 10 -19 -5 -35
-28 -31 -71 4 -44 36 15 18 33 18 49 -1z m144 -12 c4 -9 0 -23 -9 -32 -15 -15
-17 -14 -30 2 -7 11 -11 25 -8 33 7 19 39 18 47 -3z m491 1 c15 -15 15 -18 -1
-35 -22 -24 -31 -24 -44 2 -9 15 -8 24 1 35 15 18 24 18 44 -2z m987 1 c0 -5
-5 -11 -11 -13 -6 -2 -11 4 -11 13 0 9 5 15 11 13 6 -2 11 -8 11 -13z m-1167
-15 c0 -22 -39 -19 -43 3 -3 15 1 18 20 15 12 -2 23 -10 23 -18z m353 -2 c-6
-18 -28 -21 -28 -4 0 9 7 16 16 16 9 0 14 -5 12 -12z m330 -11 c2 -12 -3 -17
-17 -17 -15 0 -21 6 -21 21 0 25 33 22 38 -4z m197 2 c0 -7 -8 -15 -17 -17
-18 -3 -25 18 -11 32 10 10 28 1 28 -15z m208 -1 c12 -19 -6 -48 -29 -48 -16
0 -29 43 -19 60 9 15 35 9 48 -12z m-819 -10 c7 -27 -9 -47 -25 -31 -12 12 -3
53 11 53 4 0 10 -10 14 -22z m236 18 c0 -3 -4 -8 -10 -11 -5 -3 -10 -1 -10 4
0 6 5 11 10 11 6 0 10 -2 10 -4z m745 -16 c11 -17 -5 -32 -21 -19 -7 6 -11 15
-8 20 7 12 21 11 29 -1z m-4265 -14 c0 -7 -7 -19 -15 -26 -19 -16 -41 1 -32
24 8 20 47 21 47 2z m5123 0 c3 -8 0 -22 -8 -32 -13 -18 -14 -18 -33 0 -12 10
-18 24 -15 32 7 18 49 18 56 0z m-1683 -6 c0 -5 -2 -10 -4 -10 -3 0 -8 5 -11
10 -3 6 -1 10 4 10 6 0 11 -4 11 -10z m-740 -25 c17 -20 5 -45 -20 -45 -23 0
-35 22 -26 45 7 19 30 19 46 0z m1480 5 c0 -5 -4 -10 -10 -10 -5 0 -10 5 -10
10 0 6 5 10 10 10 6 0 10 -4 10 -10z m-1167 -12 c6 -19 -3 -38 -18 -38 -18 0
-28 17 -21 35 7 18 33 20 39 3z m357 -12 c0 -8 -5 -18 -11 -22 -14 -8 -33 11
-25 25 10 16 36 13 36 -3z m328 -9 c4 -20 -25 -34 -40 -19 -15 15 -1 44 19 40
10 -2 19 -11 21 -21z m-178 3 c0 -5 -4 -10 -10 -10 -5 0 -10 5 -10 10 0 6 5
10 10 10 6 0 10 -4 10 -10z m380 -5 c0 -9 -7 -18 -16 -22 -18 -7 -39 11 -30
26 11 17 46 13 46 -4z m367 -11 c8 -20 -8 -36 -26 -25 -15 10 -8 41 9 41 6 0
13 -7 17 -16z m-987 -20 c0 -16 -16 -19 -25 -4 -8 13 4 32 16 25 5 -4 9 -13 9
-21z m2685 -4 c0 -7 -6 -15 -12 -17 -8 -3 -13 4 -13 17 0 13 5 20 13 18 6 -3
12 -11 12 -18z m-2367 -7 c-4 -22 -22 -20 -26 1 -2 10 3 16 13 16 10 0 15 -7
13 -17z m-898 -8 c10 -12 10 -21 2 -40 -7 -14 -16 -25 -21 -25 -18 0 -33 30
-27 55 7 28 27 33 46 10z m-1650 -9 c0 -8 -4 -17 -9 -21 -12 -7 -24 12 -16 25
9 15 25 12 25 -4z m1954 8 c19 -7 21 -40 4 -47 -29 -10 -53 25 -31 46 8 8 8 8
27 1z m1338 -26 c-15 -15 -26 -4 -18 18 5 13 9 15 18 6 9 -9 9 -15 0 -24z
m-973 8 c8 -10 8 -16 -3 -25 -10 -9 -16 -8 -26 3 -12 15 -6 36 9 36 5 0 14 -6
20 -14z m331 -17 c0 -26 -28 -36 -46 -17 -14 13 -14 17 1 31 19 20 45 12 45
-14z m-183 -5 c-9 -9 -28 6 -21 18 4 6 10 6 17 -1 6 -6 8 -13 4 -17z m375 14
c12 -33 -19 -51 -41 -25 -8 10 -7 17 1 25 16 16 35 15 40 0z m376 -25 c5 -17
-26 -29 -40 -15 -6 6 -7 15 -3 22 9 14 37 9 43 -7z m-1254 -46 c8 -13 6 -21
-7 -34 -17 -17 -19 -17 -32 1 -10 14 -11 24 -4 38 12 22 27 20 43 -5z m580 8
c-4 -8 -10 -15 -15 -15 -5 0 -9 7 -9 15 0 8 7 15 15 15 9 0 12 -6 9 -15z m106
-37 c0 -24 -26 -34 -45 -18 -19 16 -19 25 1 45 19 19 44 4 44 -27z m-330 11
c0 -25 -33 -22 -38 4 -2 12 3 17 17 17 15 0 21 -6 21 -21z m520 5 c11 -12 10
-18 -3 -32 -16 -15 -18 -15 -34 0 -13 14 -14 20 -3 32 7 9 16 16 20 16 4 0 13
-7 20 -16z m-372 -6 c-6 -18 -28 -21 -28 -4 0 9 7 16 16 16 9 0 14 -5 12 -12z
m750 -21 c4 -20 -25 -34 -40 -19 -15 15 -1 44 19 40 10 -2 19 -11 21 -21z
m-291 -33 c9 -25 -13 -40 -26 -16 -10 19 -6 32 11 32 5 0 11 -7 15 -16z m-957
-10 c18 -21 -9 -49 -39 -39 -23 7 -27 25 -9 43 16 16 33 15 48 -4z m345 -19
c0 -11 -7 -21 -16 -23 -18 -3 -33 23 -23 39 10 17 39 5 39 -16z m150 4 c10
-15 -1 -23 -20 -15 -9 3 -13 10 -10 16 8 13 22 13 30 -1z m382 -5 c4 -11 -1
-22 -12 -31 -16 -11 -21 -11 -33 1 -8 8 -12 22 -9 30 8 21 46 21 54 0z m367
-17 c8 -13 7 -20 -3 -26 -19 -12 -41 -3 -41 18 0 35 25 39 44 8z m-884 -66 c0
-5 -7 -14 -16 -21 -12 -11 -18 -10 -31 3 -23 22 0 52 28 36 10 -5 19 -13 19
-18z m596 18 c3 -6 1 -16 -5 -22 -9 -9 -14 -8 -21 3 -5 8 -10 18 -10 23 0 11
28 8 36 -4z m-458 -22 c2 -12 -3 -17 -17 -17 -15 0 -21 6 -21 21 0 25 33 22
38 -4z m371 9 c27 -32 -16 -67 -44 -36 -15 16 -15 22 -5 35 16 19 34 19 49 1z
m-105 -28 c6 -25 -7 -44 -23 -34 -12 8 -15 39 -4 49 12 12 21 7 27 -15z m480
6 c8 -21 -1 -34 -24 -34 -19 0 -34 25 -24 41 9 15 41 10 48 -7z m-294 -44 c0
-5 -4 -10 -10 -10 -5 0 -10 5 -10 10 0 6 5 10 10 10 6 0 10 -4 10 -10z m-602
-24 c2 -10 -1 -23 -7 -29 -15 -15 -46 16 -37 38 8 21 40 15 44 -9z m147 -6 c0
-22 -29 -18 -33 3 -3 14 1 18 15 15 10 -2 18 -10 18 -18z m745 -5 c17 -20 5
-45 -20 -45 -23 0 -35 22 -26 45 7 19 30 19 46 0z m-295 -24 c3 -5 1 -12 -5
-16 -5 -3 -10 1 -10 9 0 18 6 21 15 7z m-187 -22 c-2 -6 -8 -10 -13 -10 -5 0
-11 4 -13 10 -2 6 4 11 13 11 9 0 15 -5 13 -11z m-409 -18 c8 -14 6 -22 -8
-35 -16 -15 -19 -15 -36 4 -14 16 -15 22 -5 35 17 20 37 19 49 -4z m146 -15
c0 -22 -14 -29 -34 -17 -19 12 -6 43 16 39 10 -2 18 -12 18 -22z m745 -7 c13
-23 -1 -49 -26 -49 -21 0 -38 38 -23 56 16 20 36 17 49 -7z m-899 -49 c24 -13
25 -36 1 -49 -35 -19 -68 19 -40 47 15 15 15 15 39 2z m149 -15 c10 -12 10
-18 0 -31 -12 -13 -15 -13 -28 0 -15 15 -10 46 6 46 5 0 15 -7 22 -15z m751
-21 c15 -18 2 -47 -24 -52 -18 -4 -41 33 -33 54 7 19 40 18 57 -2z m-3431 -64
c0 -5 -5 -10 -11 -10 -5 0 -7 5 -4 10 3 6 8 10 11 10 2 0 4 -4 4 -10z m2688
-13 c2 -9 -4 -20 -13 -23 -20 -8 -50 19 -40 36 10 17 49 8 53 -13z m-8 -73
c11 -12 10 -18 -3 -32 -15 -15 -19 -15 -32 -1 -17 17 -11 49 10 49 7 0 18 -7
25 -16z m10 -94 c0 -5 -7 -16 -16 -25 -12 -12 -19 -13 -30 -4 -29 24 -5 66 28
48 10 -5 18 -14 18 -19z m-10 -75 c10 -13 10 -19 -5 -35 -24 -26 -33 -25 -41
4 -10 43 20 63 46 31z m10 -101 c0 -18 -28 -37 -45 -30 -25 9 -30 37 -11 52
14 10 22 10 37 1 10 -6 19 -17 19 -23z"/>
<path d="M1461 4623 c-6 -21 -13 -51 -16 -68 -10 -76 -27 -171 -32 -185 -4 -8
-12 -51 -19 -95 -7 -44 -18 -109 -24 -145 -7 -36 -13 -72 -14 -80 -1 -8 -5
-22 -8 -30 -4 -8 -9 -33 -12 -55 -3 -22 -11 -65 -17 -95 -6 -30 -12 -69 -14
-86 -2 -17 -8 -48 -14 -70 -6 -21 -11 -53 -11 -71 0 -17 -4 -34 -9 -37 -5 -3
-11 -29 -14 -58 -3 -29 -13 -91 -22 -138 -10 -47 -22 -114 -28 -150 -7 -36
-16 -71 -20 -77 -16 -24 -27 -13 -27 27 0 21 -4 49 -10 62 -8 19 -35 192 -43
274 -1 12 -9 30 -18 40 -8 11 -23 32 -33 47 -9 16 -24 27 -33 25 -18 -3 -43
-78 -42 -123 1 -16 -2 -46 -6 -65 -12 -61 -26 -144 -30 -185 -7 -59 -13 -103
-25 -165 -5 -30 -12 -76 -14 -102 -2 -25 -9 -68 -15 -95 -16 -74 -33 -184 -35
-229 0 -22 -6 -47 -13 -55 -7 -9 -8 -20 -3 -29 9 -15 -4 -50 -20 -50 -14 0
-23 41 -12 52 7 7 7 19 1 35 -5 14 -9 37 -9 51 1 26 -2 75 -16 297 -10 171
-12 193 -18 305 -3 58 -8 139 -11 180 -2 41 -7 113 -9 160 -7 116 -17 262 -22
335 -4 57 -4 69 -4 98 0 6 -2 41 -4 77 -3 36 -7 93 -9 127 -2 35 -7 66 -10 70
-4 3 -7 16 -7 27 0 30 -28 66 -51 66 -13 0 -19 -7 -19 -21 0 -11 -5 -30 -12
-42 -6 -12 -12 -38 -13 -58 -1 -20 -10 -51 -19 -69 -9 -18 -16 -47 -16 -65 0
-17 -4 -35 -10 -41 -5 -5 -12 -25 -14 -44 -3 -19 -10 -51 -15 -70 -6 -19 -15
-55 -22 -80 -6 -25 -17 -60 -25 -77 -7 -18 -11 -39 -8 -47 3 -8 -2 -26 -11
-40 -10 -14 -15 -32 -12 -40 6 -14 -7 -63 -24 -98 -5 -10 -9 -29 -9 -42 0 -14
-4 -27 -9 -30 -5 -4 -12 -25 -16 -48 -4 -22 -13 -55 -21 -73 -7 -18 -10 -35
-7 -39 7 -7 -16 -85 -29 -100 -4 -6 -8 -23 -8 -38 0 -16 -7 -43 -16 -60 -9
-17 -14 -39 -11 -49 3 -10 -1 -26 -8 -36 -11 -15 -33 -19 -120 -23 -59 -3
-113 -2 -120 3 -17 9 -45 -1 -45 -17 1 -17 36 -56 52 -56 8 0 19 5 26 12 9 9
17 9 35 -1 20 -11 28 -10 45 0 17 11 25 11 46 0 21 -12 28 -12 41 -1 13 11 20
11 40 0 20 -11 28 -10 50 4 22 14 25 22 19 50 -3 20 -1 36 5 40 7 5 7 13 -1
26 -10 16 -9 23 9 42 17 18 20 27 11 42 -9 16 -7 23 9 36 15 12 19 24 16 44
-4 17 1 33 12 46 13 14 14 23 6 38 -8 15 -6 23 9 37 16 14 19 26 14 50 -4 25
-2 34 11 39 13 5 15 13 11 32 -5 18 -2 32 10 45 10 11 14 27 11 40 -4 14 1 31
13 47 14 17 17 29 11 41 -6 11 -3 23 10 40 15 18 17 27 8 43 -9 18 -8 24 10
37 17 13 20 23 15 49 -5 24 -3 33 10 38 12 5 15 14 10 38 -4 23 -1 36 11 46
11 9 14 22 10 41 -5 22 -2 30 16 39 18 10 25 9 41 -8 17 -17 18 -22 7 -40 -11
-17 -11 -25 0 -46 11 -20 11 -28 2 -40 -9 -11 -10 -20 -1 -36 6 -12 9 -34 5
-50 -4 -16 -1 -37 6 -48 10 -16 10 -23 0 -36 -11 -13 -11 -20 3 -41 13 -20 14
-28 4 -44 -10 -16 -9 -25 1 -45 11 -21 12 -28 1 -41 -10 -12 -9 -19 4 -40 13
-20 14 -28 4 -44 -10 -16 -9 -25 1 -45 11 -21 12 -28 1 -41 -10 -12 -9 -20 4
-40 13 -20 14 -30 5 -46 -8 -16 -8 -27 1 -44 9 -17 9 -28 0 -45 -9 -18 -9 -25
5 -40 14 -15 14 -22 5 -40 -9 -17 -9 -28 0 -45 9 -17 9 -28 0 -45 -9 -18 -9
-25 5 -40 14 -15 14 -22 5 -40 -9 -18 -9 -28 1 -47 11 -20 11 -28 0 -45 -10
-17 -10 -23 4 -38 13 -14 14 -22 4 -44 -10 -21 -9 -29 4 -44 15 -16 15 -21 3
-38 -13 -16 -13 -22 0 -42 11 -17 12 -27 4 -43 -9 -16 -8 -26 4 -43 13 -20 13
-26 1 -42 -12 -16 -12 -22 1 -42 11 -16 12 -27 4 -42 -7 -13 -7 -27 2 -45 9
-20 9 -31 1 -45 -9 -13 -8 -23 4 -40 13 -18 13 -26 3 -46 -11 -20 -11 -27 3
-42 15 -16 15 -21 3 -38 -12 -16 -12 -22 2 -46 13 -22 13 -29 3 -42 -11 -13
-11 -22 -1 -45 8 -21 9 -35 1 -50 -9 -16 -7 -23 11 -35 12 -9 30 -16 39 -16
17 0 18 1 20 140 0 19 5 40 10 46 6 7 7 28 4 46 -5 25 -2 38 9 47 12 10 13 17
3 38 -9 21 -8 27 8 39 15 11 16 18 7 38 -8 18 -7 28 4 44 9 13 12 31 8 46 -3
15 0 33 9 47 12 17 13 26 4 40 -9 14 -7 22 7 38 14 16 15 23 6 41 -9 18 -8 25
6 41 14 15 15 24 6 43 -9 19 -8 27 4 36 17 15 18 42 2 58 -9 9 -7 17 9 34 17
18 19 27 12 41 -8 13 -6 25 5 43 13 19 14 29 6 45 -9 16 -8 24 4 38 11 12 14
28 10 47 -4 21 -1 34 10 43 11 10 13 18 4 36 -8 17 -6 28 7 48 14 21 14 29 3
46 -11 18 -10 22 7 35 17 12 18 17 6 42 -11 25 -10 30 5 41 23 16 29 16 43 -1
9 -11 9 -19 0 -35 -11 -17 -10 -23 6 -40 15 -17 16 -26 7 -45 -9 -20 -7 -27 8
-41 15 -14 17 -21 8 -40 -8 -18 -7 -28 6 -46 12 -17 13 -26 4 -36 -9 -11 -8
-21 6 -43 13 -23 15 -34 6 -50 -9 -16 -8 -25 2 -37 7 -9 13 -32 13 -52 0 -34
2 -36 38 -39 39 -3 49 12 25 36 -9 9 -6 17 11 36 18 19 22 31 17 52 -5 18 -2
32 9 44 14 15 14 22 4 41 -10 20 -9 25 9 37 17 11 19 18 11 39 -7 20 -6 30 6
43 11 12 14 26 9 44 -4 19 -1 33 11 46 13 15 14 22 5 40 -9 17 -8 25 5 40 11
12 14 26 9 44 -4 19 -1 33 10 45 15 16 15 22 4 41 -11 18 -11 23 5 35 14 10
17 21 12 48 -5 27 -3 36 10 41 13 5 15 13 10 37 -5 22 -2 36 10 49 14 15 14
21 4 38 -11 18 -10 24 4 40 13 14 16 28 11 46 -4 19 -1 33 10 45 15 16 15 22
5 39 -11 18 -10 24 4 40 13 14 16 28 11 46 -4 19 -1 33 10 45 15 16 15 22 4
41 -11 18 -11 23 6 35 14 10 17 21 12 40 -12 46 35 75 64 40 10 -13 10 -19 -4
-34 -17 -18 -17 -21 0 -46 13 -20 14 -29 5 -38 -15 -15 -14 -36 4 -54 14 -14
14 -17 -1 -34 -15 -17 -15 -20 0 -44 13 -20 14 -28 4 -44 -10 -16 -9 -25 1
-45 12 -21 12 -28 1 -41 -11 -13 -11 -20 0 -40 10 -19 11 -31 2 -49 -8 -18 -7
-27 6 -39 13 -14 14 -20 3 -40 -11 -20 -10 -28 0 -46 11 -17 11 -25 1 -41 -10
-17 -10 -24 2 -42 11 -16 12 -26 5 -41 -8 -14 -8 -26 2 -44 10 -19 10 -28 1
-43 -9 -15 -9 -25 0 -45 9 -21 9 -31 -1 -47 -10 -17 -10 -23 4 -38 14 -15 14
-22 5 -40 -9 -17 -9 -28 0 -45 9 -17 9 -28 0 -45 -9 -18 -9 -25 5 -40 14 -15
14 -22 5 -40 -9 -17 -9 -28 0 -45 9 -17 9 -28 0 -45 -9 -18 -9 -25 5 -40 16
-17 16 -21 1 -41 -14 -21 -14 -24 1 -41 15 -16 15 -22 4 -40 -10 -17 -10 -25
0 -44 9 -18 10 -30 1 -48 -8 -18 -7 -28 4 -44 12 -17 12 -25 2 -41 -10 -16 -9
-25 1 -44 10 -19 10 -29 1 -47 -9 -18 -9 -25 6 -41 16 -18 16 -20 1 -37 -15
-17 -15 -20 -1 -41 14 -19 14 -27 4 -47 -11 -20 -11 -27 5 -44 17 -19 17 -21
1 -39 -17 -18 -17 -21 -1 -45 14 -21 15 -29 5 -41 -11 -13 -10 -20 1 -41 10
-20 11 -29 0 -45 -10 -17 -10 -25 3 -44 13 -19 13 -25 1 -41 -12 -16 -12 -22
1 -41 11 -18 12 -27 2 -48 -9 -20 -8 -28 5 -43 15 -17 15 -20 1 -41 -15 -20
-15 -24 0 -40 14 -15 15 -23 5 -45 -9 -19 -9 -32 -2 -49 8 -16 8 -29 0 -42 -8
-15 -5 -22 13 -37 12 -10 31 -18 42 -18 18 0 19 4 13 36 -4 21 -2 48 5 64 8
20 9 34 1 48 -8 15 -7 23 5 33 11 9 14 22 10 43 -4 19 -1 35 10 47 12 14 13
22 4 39 -9 18 -8 25 6 41 14 15 15 24 6 43 -9 20 -7 27 8 41 15 14 17 21 8 41
-9 19 -8 28 7 45 16 17 17 23 6 41 -10 16 -10 23 3 37 18 20 21 47 5 56 -7 5
-3 15 11 30 18 19 20 27 10 45 -9 18 -8 25 6 41 15 17 16 22 3 45 -12 23 -11
27 5 39 14 10 17 21 12 41 -5 18 -2 32 11 46 14 16 15 22 4 39 -10 17 -10 25
3 44 10 15 14 35 10 52 -4 20 -1 33 10 42 12 10 13 17 4 37 -9 19 -8 28 6 43
14 16 15 23 6 41 -9 17 -8 25 5 40 11 12 14 26 9 44 -4 19 -1 33 10 45 15 16
15 22 5 39 -11 18 -10 24 6 42 16 18 17 24 6 42 -10 17 -10 23 5 39 11 12 14
27 10 45 -8 31 8 54 37 54 17 0 19 -5 14 -33 -4 -26 -1 -36 15 -46 15 -9 18
-19 13 -41 -5 -23 -2 -31 15 -40 17 -9 20 -17 15 -39 -4 -17 -1 -32 7 -38 19
-15 110 -23 130 -12 12 6 25 6 39 -2 16 -8 27 -8 45 2 19 10 27 10 36 1 15
-15 48 -16 48 -2 0 14 33 13 48 -2 9 -9 17 -9 36 2 21 10 28 11 41 0 12 -10
21 -10 45 0 24 10 33 10 45 0 13 -11 20 -11 39 0 18 9 28 9 46 0 18 -9 28 -9
46 0 19 11 26 11 39 0 13 -11 20 -11 39 0 18 9 28 9 46 0 18 -9 28 -9 46 0 19
11 26 11 39 0 13 -11 20 -11 40 0 21 11 29 11 49 1 13 -8 29 -11 34 -7 16 10
74 -54 69 -76 -4 -12 3 -24 20 -35 19 -13 23 -22 18 -41 -7 -29 7 -42 47 -42
34 0 44 16 24 39 -15 16 -14 19 9 41 24 22 24 25 9 48 -14 22 -14 25 1 42 13
14 14 22 4 44 -11 23 -10 29 4 44 16 15 18 15 34 0 14 -15 15 -21 4 -44 -10
-23 -10 -29 3 -36 19 -11 21 -39 4 -56 -9 -9 -7 -16 7 -32 16 -18 17 -24 7
-41 -10 -16 -9 -24 5 -45 14 -21 14 -29 4 -46 -10 -17 -9 -23 5 -40 15 -16 16
-22 5 -39 -10 -17 -9 -25 4 -45 12 -18 13 -29 5 -44 -8 -15 -7 -26 5 -44 13
-20 14 -28 4 -45 -11 -17 -10 -23 4 -39 15 -16 16 -24 6 -46 -11 -23 -10 -28
7 -40 16 -13 17 -17 5 -40 -13 -23 -12 -28 3 -45 14 -16 15 -23 5 -39 -10 -16
-9 -23 4 -42 12 -17 13 -28 5 -46 -8 -17 -8 -27 1 -38 8 -10 10 -27 6 -46 -5
-23 -3 -35 10 -44 14 -10 15 -16 4 -39 -9 -21 -9 -30 0 -41 8 -9 10 -28 6 -49
-4 -22 -3 -37 4 -42 7 -4 9 -19 6 -39 -5 -24 -2 -36 14 -50 27 -24 50 -14 49
21 0 15 2 46 6 68 3 22 2 47 -3 55 -7 10 -5 20 5 31 13 14 13 22 4 39 -9 17
-9 29 0 50 9 22 9 32 -1 49 -12 17 -11 22 4 33 15 11 16 17 5 46 -11 27 -10
34 1 41 11 7 11 16 3 39 -8 23 -7 35 5 52 13 19 13 23 -1 39 -14 15 -14 19 -1
38 12 17 13 27 4 47 -10 21 -9 29 4 44 15 16 15 21 3 38 -13 16 -13 22 0 42
11 17 12 27 3 43 -8 16 -8 27 2 46 11 20 11 28 0 45 -10 17 -10 23 4 38 14 15
14 22 5 40 -9 18 -9 28 1 47 10 19 11 28 1 44 -10 16 -9 24 4 44 15 24 15 27
0 44 -15 16 -15 19 -1 31 11 9 14 22 9 45 -3 18 -1 43 6 55 9 17 9 25 -4 39
-14 16 -14 19 1 34 14 14 15 21 4 43 -10 22 -9 30 3 43 13 14 14 23 3 50 -10
26 -9 33 3 41 11 7 12 13 2 36 -10 22 -10 31 2 49 13 20 13 25 -1 44 -14 20
-13 24 2 41 13 14 14 23 6 39 -16 29 -14 39 10 52 18 9 25 7 41 -9 17 -16 18
-23 8 -42 -9 -18 -8 -25 6 -41 14 -15 15 -24 6 -43 -9 -20 -7 -27 8 -41 15
-14 17 -21 8 -41 -10 -21 -8 -28 9 -46 29 -29 53 -17 53 24 0 19 7 44 17 57
13 20 14 27 4 44 -11 17 -10 23 7 40 17 16 18 24 10 43 -9 19 -8 28 7 45 16
17 17 23 6 41 -11 17 -9 23 9 43 14 15 18 25 11 30 -16 9 -13 36 5 56 12 14
13 22 4 39 -9 17 -8 25 5 40 11 12 14 26 9 44 -4 19 -1 33 12 47 13 15 15 22
6 31 -18 18 -14 36 9 49 17 9 25 8 37 -5 14 -14 15 -20 4 -37 -11 -17 -11 -25
3 -45 12 -19 13 -27 3 -43 -10 -16 -9 -25 1 -44 11 -20 11 -28 0 -45 -11 -18
-10 -24 6 -42 17 -19 17 -22 2 -37 -14 -14 -14 -19 -1 -44 11 -23 12 -33 2
-48 -10 -17 -9 -23 6 -40 18 -20 18 -22 2 -40 -17 -18 -17 -21 -1 -45 14 -21
15 -29 5 -41 -10 -12 -10 -21 0 -44 9 -23 9 -33 -2 -50 -11 -17 -10 -23 4 -37
13 -13 14 -21 5 -41 -8 -18 -8 -29 1 -43 9 -15 9 -26 0 -45 -9 -20 -8 -28 5
-43 15 -17 15 -20 1 -41 -15 -20 -15 -24 2 -42 15 -16 15 -23 5 -43 -11 -19
-10 -27 0 -45 11 -17 12 -25 1 -42 -10 -15 -10 -24 -2 -34 7 -8 9 -28 4 -50
-5 -27 -3 -40 7 -46 12 -7 12 -12 1 -30 -11 -17 -11 -27 -2 -49 8 -20 9 -34 1
-48 -7 -14 -6 -25 6 -41 11 -17 12 -26 4 -34 -18 -18 -12 -46 14 -63 30 -20
45 -11 45 26 0 18 9 35 24 47 18 15 23 26 19 46 -4 19 0 29 11 33 10 4 16 18
16 40 0 22 7 38 21 47 17 13 19 19 10 36 -10 17 -7 23 13 37 20 12 24 21 20
44 -5 22 -1 31 15 39 16 9 20 18 15 38 -5 20 -2 30 16 43 27 20 20 57 -13 69
-28 11 -37 5 -37 -22 0 -12 -12 -44 -25 -72 -14 -27 -25 -56 -25 -64 0 -8 -7
-22 -15 -31 -8 -9 -19 -36 -24 -61 -11 -55 -28 -99 -39 -99 -8 0 -9 9 -16 195
-3 61 -7 148 -10 195 -3 47 -8 141 -11 210 -3 69 -8 168 -11 220 -5 85 -6 108
-4 153 0 6 -2 53 -5 102 -8 129 -13 243 -18 383 -2 75 -8 127 -15 134 -7 7
-12 19 -12 28 0 18 -40 60 -57 60 -10 0 -21 -41 -27 -105 -2 -16 -6 -41 -11
-54 -7 -23 -9 -35 -19 -126 -6 -54 -13 -93 -21 -104 -3 -6 -8 -43 -11 -83 -3
-40 -9 -77 -13 -83 -8 -9 -18 -69 -26 -143 -4 -41 -24 -92 -37 -92 -13 0 -17
17 -22 80 -6 77 -30 233 -37 245 -4 6 -10 28 -13 50 -8 42 -40 85 -63 85 -14
0 -14 -1 -18 -75 -1 -27 -3 -52 -5 -55 -1 -3 -3 -43 -5 -90 -2 -47 -6 -132
-10 -190 -3 -58 -8 -145 -10 -195 -3 -49 -7 -130 -10 -180 -8 -129 -16 -278
-20 -370 -2 -44 -6 -123 -10 -175 -7 -96 -13 -229 -14 -308 -1 -36 -4 -43 -18
-40 -19 3 -28 44 -39 168 -5 68 -10 111 -19 195 -3 28 -8 68 -10 90 -12 117
-16 144 -24 184 -5 24 -6 61 -4 82 3 21 1 44 -5 51 -8 11 -22 115 -24 178 -1
37 -29 277 -35 295 -4 11 -7 29 -8 39 -2 26 -45 60 -58 47 -14 -14 -24 -237
-31 -651 -1 -77 -3 -85 -21 -85 -12 0 -21 9 -25 25 -4 17 -13 25 -26 25 -12 0
-28 6 -38 14 -14 12 -70 14 -319 12 -166 -2 -309 -2 -317 -2 -8 1 -79 3 -158
4 -139 2 -144 3 -162 27 -10 13 -20 36 -23 50 -6 32 -25 87 -43 123 -8 16 -14
37 -14 48 0 12 -7 19 -20 19 -11 0 -26 12 -34 29 -37 70 -68 31 -81 -100 -4
-40 -11 -80 -15 -89 -5 -8 -13 -53 -19 -100 -6 -47 -15 -110 -21 -140 -6 -30
-13 -71 -15 -90 -3 -19 -7 -48 -9 -65 -30 -201 -38 -253 -47 -267 -5 -10 -9
-37 -9 -60 -1 -24 -5 -63 -11 -88 -13 -58 -28 -146 -32 -187 -1 -18 -6 -35
-10 -39 -18 -18 -26 20 -32 146 -6 137 -11 241 -19 430 -3 58 -8 155 -10 215
-3 61 -8 155 -11 210 -3 55 -8 150 -11 210 -19 452 -30 685 -38 835 -3 41 -7
134 -11 205 -4 72 -11 134 -16 140 -5 5 -9 18 -9 30 -1 26 -23 55 -42 55 -8 0
-20 -16 -27 -37z m47 -225 c-3 -7 -11 -13 -18 -13 -7 0 -15 6 -17 13 -3 7 4
12 17 12 13 0 20 -5 18 -12z m-9 -67 c16 -10 6 -51 -13 -51 -8 0 -19 7 -26 15
-10 12 -10 18 0 30 14 17 20 18 39 6z m-844 -156 c0 -11 -7 -21 -16 -23 -18
-3 -33 23 -23 39 10 17 39 5 39 -16z m3208 10 c1 -5 -6 -11 -15 -13 -11 -2
-18 3 -18 13 0 17 30 18 33 0z m-5 -101 c-19 -19 -38 -11 -38 16 0 24 21 31
40 14 12 -12 12 -16 -2 -30z m-283 -224 c3 -5 1 -10 -4 -10 -6 0 -11 5 -11 10
0 6 2 10 4 10 3 0 8 -4 11 -10z m13 -87 c-2 -10 -10 -18 -18 -18 -8 0 -16 8
-18 18 -2 12 3 17 18 17 15 0 20 -5 18 -17z m7 -73 c10 -15 -5 -50 -20 -50
-17 0 -38 36 -30 50 8 13 42 13 50 0z m-2531 -209 c3 -5 -1 -14 -8 -20 -16
-13 -32 2 -21 19 8 12 22 13 29 1z m2173 -157 c-9 -9 -28 6 -21 18 4 6 10 6
17 -1 6 -6 8 -13 4 -17z m11 -77 c2 -12 -3 -17 -17 -17 -12 0 -21 6 -21 13 0
31 32 34 38 4z m22 -87 c0 -13 -32 -28 -47 -23 -7 3 -13 13 -13 23 0 10 6 20
13 23 15 5 47 -10 47 -23z m-2440 -660 c0 -5 -4 -10 -10 -10 -5 0 -10 5 -10
10 0 6 5 10 10 10 6 0 10 -4 10 -10z"/>
</g>
</svg>
