<svg id="Layer_1" enable-background="new 0 0 512 512" height="512" viewBox="0 0 512 512" width="512" xmlns="http://www.w3.org/2000/svg"><g><path d="m507.689 337.538c-8.873-15.369-28.526-20.635-43.895-11.761l-124.272 71.747c-2.28 1.317-4.867 2.01-7.5 2.01h-64.267c-8.284 0-15-6.716-15-15s6.716-15 15-15h51.603c17.747 0 32.133-14.387 32.133-32.133s-14.387-32.133-32.133-32.133h-79.423c-38.581 0-70.812 27.707-77.843 64.267h-50.69c-8.284 0-15 6.716-15 15v80.333c0 8.284 6.716 15 15 15h210.008c2.633 0 5.22-.693 7.5-2.01l167.018-96.424c15.369-8.875 20.635-28.527 11.761-43.896z" fill="#ffe1d2"/><path d="m111.403 479.867h210.007c2.633 0 5.22-.693 7.5-2.01l167.018-96.424c15.369-8.873 20.635-28.526 11.761-43.895-8.873-15.369-28.526-20.635-43.895-11.761l-124.272 71.747c-2.28 1.317-4.867 2.01-7.5 2.01h-235.619v65.333c0 8.284 6.716 15 15 15z" fill="#ffc3b9"/><path d="m111.4 512h-96.4c-8.284 0-15-6.716-15-15v-144.6c0-8.284 6.716-15 15-15h96.4c8.284 0 15 6.716 15 15v144.6c0 8.284-6.716 15-15 15z" fill="#00d4f5"/><path d="m126.4 497v-97.467h-126.4v97.467c0 8.284 6.716 15 15 15h96.4c8.284 0 15-6.716 15-15z" fill="#0098c9"/><path d="m336.336 271c-61.426 0-111.4-49.974-111.4-111.4 0-32.006 17.46-68.251 51.896-107.728 24.722-28.34 49.157-47.812 50.186-48.627 5.459-4.327 13.178-4.327 18.637 0 1.028.815 25.464 20.287 50.186 48.627 34.436 39.476 51.896 75.721 51.896 107.728-.001 61.426-49.974 111.4-111.401 111.4z" fill="#8fefec"/><path d="m447.736 159.6c0-32.006-17.461-68.251-51.896-107.728-24.722-28.34-49.157-47.812-50.186-48.627-2.729-2.163-6.024-3.245-9.318-3.245v271c61.427 0 111.4-49.974 111.4-111.4z" fill="#00dbd5"/><path d="m368.47 144.6h-17.134v-17.133c0-8.284-6.716-15-15-15s-15 6.716-15 15v17.133h-17.133c-8.284 0-15 6.716-15 15s6.716 15 15 15h17.133v17.133c0 8.284 6.716 15 15 15s15-6.716 15-15v-17.133h17.134c8.284 0 15-6.716 15-15s-6.716-15-15-15z" fill="#fffaf5"/><path d="m351.336 191.733v-17.133h17.134c8.284 0 15-6.716 15-15s-6.716-15-15-15h-17.134v-17.133c0-8.284-6.716-15-15-15v94.267c8.284-.001 15-6.717 15-15.001z" fill="#f0e6ea"/></g></svg>